<?xml version="1.0" encoding="utf-8" standalone="yes"?>
<!DOCTYPE svg PUBLIC "-//W3C//DTD SVG 1.1//EN" "http://www.w3.org/Graphics/SVG/1.1/DTD/svg11.dtd">
<svg width="876" height="900" viewBox="0 0 876 900" style="fill:none;stroke:none;fill-rule:evenodd;clip-rule:evenodd;stroke-linecap:round;stroke-linejoin:round;stroke-miterlimit:1.5;" version="1.1" xmlns="http://www.w3.org/2000/svg" xmlns:xlink="http://www.w3.org/1999/xlink"><style class="text-font-style fontImports" data-font-family="Roboto">@import url('https://fonts.googleapis.com/css2?family=Roboto:wght@400;700&amp;display=block');</style><g id="items" style="isolation: isolate"><g id="blend" style="mix-blend-mode: normal"><g id="g-root-cp_0_g-0_1lu9y2oflpk3l-fill" data-item-order="-665702" transform="translate(398, 458)"><g id="cp_0_g-0_1lu9y2oflpk3l-fill" stroke="none" fill="#666666"><g><path d="M 21.231 27.1473C 38.2711 6.8397 68.5473 4.1909 88.8549 21.231C 109.1625 38.2711 111.8113 68.5473 94.7712 88.8549C 77.7312 109.1625 47.4549 111.8113 27.1473 94.7712C 6.8397 77.7312 4.1909 47.4549 21.231 27.1473Z"></path></g></g></g><g id="g-root-cp_1_g-1_18itfpcflploj-fill" data-item-order="-665697" transform="translate(373.9999694824219, 443.804931640625)"></g><g id="g-root-cp_1_g-1_1_zn6fggflpmh9-fill" data-item-order="-665694" transform="translate(499, 383.50390625)"><g id="cp_1_g-1_1_zn6fggflpmh9-fill" stroke="none" fill="#1eabda"><g><path d="M 20.5964 95.353C 18.4664 97.8914 14.6819 98.2225 12.1434 96.0925C 9.605 93.9625 9.2739 90.178 11.4039 87.6395C 13.5339 85.1011 17.3184 84.77 19.8569 86.9C 22.3953 89.03 22.7264 92.8145 20.5964 95.353ZM 49.7046 10.2085C 69.4733 8.087 87.2189 22.3929 89.3404 42.1616C 91.462 61.9304 77.1561 79.676 57.3874 81.7975C 50.4944 82.5372 43.8474 81.2797 38.0229 78.4899L 24.0296 82.6163L 25.0928 68.0661C 21.1306 62.9662 18.4913 56.7374 17.7515 49.8444C 15.63 30.0757 29.9359 12.3301 49.7046 10.2085Z"></path></g></g></g><g id="g-root-cp_2_g-2_v7zef4flpk3r-fill" data-item-order="-665689" transform="translate(350, 410)"></g><g id="g-root-cp_2_g-2_1_hwiw1sflplop-fill" data-item-order="-665686" transform="translate(526, 529.85498046875)"><g id="cp_2_g-2_1_hwiw1sflplop-fill" stroke="none" fill="#3cc583"><g><path d="M 20.5964 31.5014C 18.4664 34.0398 14.6819 34.3709 12.1434 32.2409C 9.605 30.1109 9.2739 26.3264 11.4039 23.7879C 13.5339 21.2495 17.3184 20.9184 19.8569 23.0484C 22.3953 25.1784 22.7264 28.9629 20.5964 31.5014ZM 102.722 30.1147C 111.4996 47.9545 104.1533 69.5322 86.3136 78.3098C 68.4738 87.0874 46.8961 79.7411 38.1185 61.9014C 35.0579 55.681 33.9576 49.0062 34.579 42.578L 25.9004 30.851L 39.9317 26.8557C 43.3619 21.3838 48.3065 16.7669 54.5269 13.7063C 72.3667 4.9287 93.9443 12.275 102.722 30.1147Z"></path></g></g></g><g id="g-root-cp_3_g-3_dgpdxcflpmgz-fill" data-item-order="-665681" transform="translate(326, 386)"></g><g id="g-root-cp_3_g-3_1_4lourkflpk3x-fill" data-item-order="-665678" transform="translate(409.75994873046875, 619.5)"><g id="cp_3_g-3_1_4lourkflpk3x-fill" stroke="none" fill="#92bd39"><g><path d="M 50.836661 19.8569C 48.706661 22.3953 44.922161 22.7264 42.383661 20.5964C 39.845261 18.4664 39.514161 14.6819 41.644161 12.1434C 43.774161 9.605 47.558761 9.2739 50.097161 11.4039C 52.635561 13.5339 52.966761 17.3184 50.836661 19.8569ZM 20.105261 100.5548C 33.917461 114.8561 56.707961 115.2526 71.009261 101.4404C 85.310561 87.6282 85.707061 64.8377 71.894861 50.5364C 67.078861 45.5498 61.171261 42.2538 54.912561 40.6611L 46.240261 28L 38.306561 40.3722C 31.996261 41.7462 25.977561 44.8347 20.990961 49.6508C 6.689561 63.463 6.293061 86.2535 20.105261 100.5548Z"></path></g></g></g><g id="g-root-cp_4_g-4_5vcn4flpkw7-fill" data-item-order="-665673" transform="translate(302, 362)"></g><g id="g-root-cp_4_g-4_1_1lviw8wflpma1-fill" data-item-order="-665670" transform="translate(217.14498901367188, 527.02294921875)"><g id="cp_4_g-4_1_1lviw8wflpma1-fill" stroke="none" fill="#e0cb15"><g><path d="M 11.380831 36.1669C 5.945031 55.2916 17.042131 75.2019 36.166931 80.6377C 55.291731 86.0735 75.201931 74.9763 80.637731 55.8516C 82.533031 49.1832 82.418431 42.4193 80.654231 36.2067L 87.088831 23.1133L 72.568531 21.6994C 68.212631 16.9313 62.520131 13.2762 55.851631 11.3808C 36.726831 5.945 16.816631 17.0421 11.380831 36.1669ZM 102.451931 21.8334C 100.321931 24.3719 96.537331 24.703 93.998931 22.573C 91.460431 20.443 91.129331 16.6584 93.259331 14.12C 95.389331 11.5815 99.173931 11.2504 101.712331 13.3804C 104.250831 15.5104 104.581931 19.295 102.451931 21.8334Z"></path></g></g></g><g id="g-root-cp_5_g-5_1hgbv7kflpjwj-fill" data-item-order="-665665" transform="translate(278, 373.738037109375)"></g><g id="g-root-cp_5_g-5_1_18kouyoflpkp9-fill" data-item-order="-665662" transform="translate(231.7430419921875, 330.22998046875)"><g id="cp_5_g-5_1_18kouyoflpkp9-fill" stroke="none" fill="#de8431"><g><path d="M 93.8542 89.6264C 91.7242 92.1648 87.9397 92.4959 85.4012 90.3659C 82.8628 88.2359 82.5317 84.4514 84.6617 81.9129C 86.7917 79.3745 90.5762 79.0434 93.1147 81.1734C 95.6531 83.3034 95.9842 87.0879 93.8542 89.6264ZM 44.1537 10.0483C 24.2976 11.0685 9.0281 27.992 10.0483 47.848C 11.0685 67.7041 27.992 82.9736 47.848 81.9534C 54.7715 81.5977 61.1373 79.3085 66.4493 75.6356L 80.9181 77.5055L 77.5752 63.3046C 80.6844 57.644 82.3091 51.0771 81.9534 44.1537C 80.9333 24.2976 64.0097 9.0281 44.1537 10.0483Z"></path></g></g></g><g id="g-root-cp_6_g-6_144vcu8flplhj-fill" data-item-order="-665657" transform="translate(254, 314.093994140625)"></g><g id="g-root-cp_6_g-6_1_zp1upsflpm9t-fill" data-item-order="-665654" transform="translate(410, 219)"><g id="cp_6_g-6_1_zp1upsflpm9t-fill" stroke="none" fill="#e55753"><g><path d="M 50.5495 108.81C 48.4195 111.3484 44.635 111.6795 42.0965 109.5495C 39.5581 107.4195 39.227 103.635 41.357 101.0965C 43.487 98.5581 47.2715 98.227 49.81 100.357C 52.3484 102.487 52.6795 106.2715 50.5495 108.81ZM 71.3456 20.4344C 57.2261 6.4364 34.4324 6.5349 20.4344 20.6544C 6.4364 34.7739 6.5349 57.5676 20.6544 71.5656C 25.5776 76.4464 31.5554 79.6134 37.8472 81.0698L 46.2032 93.0288L 54.4555 80.9981C 60.7345 79.4874 66.6848 76.2688 71.5656 71.3456C 85.5636 57.2261 85.4651 34.4324 71.3456 20.4344Z"></path></g></g></g><g id="g-root-ic_wech_1lxebi8flplak-fill" data-item-order="-2304" transform="translate(421.906005859375, 482.133056640625)"><g id="ic_wech_1lxebi8flplak-fill" stroke="none" fill="#484848"><g><path d="M 34 12C 20.76 12 10 21 10 32C 10.103841 37.455997 12.624104 42.584438 16.879999 45.999996C 17.013515 46.104568 17.081944 46.271832 17.059999 46.439999L 16.200001 54.34C 16.137205 54.924999 16.41766 55.493698 16.92 55.799999C 17.413574 56.116673 18.046425 56.116673 18.540001 55.800003C 18.76 55.639999 23.700001 52.279999 25.4 51.040001C 25.528786 50.990757 25.671213 50.990757 25.799999 51.040001C 28.488203 51.714088 31.233431 52.135918 34 52.300003C 47.240002 52.299999 58 43.299999 58 32.299999C 58 21.299999 47.240002 12 34 12ZM 25.220001 32.540001C 23.673138 32.539978 22.27898 31.607086 21.688908 30.177195C 21.098835 28.747301 21.42934 27.102694 22.526005 26.011772C 23.622667 24.920851 25.268986 24.598984 26.695763 25.196552C 28.122538 25.794125 29.0481 27.193161 29.040001 28.74C 29.028996 30.841913 27.321941 32.540031 25.220001 32.540001ZM 42.580002 32.540001C 41.033142 32.539978 39.638981 31.607086 39.048908 30.177195C 38.458836 28.747301 38.789341 27.102694 39.886002 26.011772C 40.982666 24.920851 42.628986 24.598984 44.055763 25.196552C 45.48254 25.794125 46.4081 27.193161 46.400002 28.74C 46.400017 29.751297 45.996914 30.720886 45.279945 31.434103C 44.562977 32.147316 43.591286 32.545322 42.580002 32.540001Z"></path></g></g></g><g id="g-root-tx_enablesr_4lourkflqya4-fill" data-item-order="0" transform="translate(650, 344)"><g id="tx_enablesr_4lourkflqya4-fill" stroke="none" fill="#32444a"><g><text style="font: 15px Roboto, sans-serif; white-space: pre;" font-size="15px" font-family="Roboto, sans-serif"><tspan x="12" y="31" dominant-baseline="ideographic">Enables real-time </tspan><tspan x="12" y="49" dominant-baseline="ideographic">communication with </tspan><tspan x="12" y="67" dominant-baseline="ideographic">customers</tspan></text></g></g></g><g id="g-root-tx_5_3zxdsflr021-fill" data-item-order="0" transform="translate(255.5, 348.5)"><g id="tx_5_3zxdsflr021-fill" stroke="none" fill="#ffffff"><g><text style="font: bold 30px Roboto, sans-serif; white-space: pre;" font-weight="bold" font-size="30px" font-family="Roboto, sans-serif"><tspan x="13.39" y="46" dominant-baseline="ideographic">5</tspan></text></g></g></g><g id="g-root-tx_buildstr_4ot874flqzgk-fill" data-item-order="0" transform="translate(50, 344)"><g id="tx_buildstr_4ot874flqzgk-fill" stroke="none" fill="#4c4034"><g><text style="font: 15px Roboto, sans-serif; white-space: pre;" font-size="15px" font-family="Roboto, sans-serif"><tspan x="13.02" y="31" dominant-baseline="ideographic">Builds trust and loyalty </tspan><tspan x="28.03" y="49" dominant-baseline="ideographic">between businesses </tspan><tspan x="64.26" y="67" dominant-baseline="ideographic">and customers</tspan></text></g></g></g><g id="g-root-tx_1_zk220wflr091-fill" data-item-order="0" transform="translate(530.5, 401.5)"><g id="tx_1_zk220wflr091-fill" stroke="none" fill="#ffffff"><g><text style="font: bold 30px Roboto, sans-serif; white-space: pre;" font-weight="bold" font-size="30px" font-family="Roboto, sans-serif"><tspan x="13.39" y="46" dominant-baseline="ideographic">1</tspan></text></g></g></g><g id="g-root-tx_instantm_qs5waoflqz2b-fill" data-item-order="0" transform="translate(650, 284)"><g id="tx_instantm_qs5waoflqz2b-fill" stroke="none" fill="#1eabda"><g><text style="font: bold 20px Roboto, sans-serif; white-space: pre;" font-weight="bold" font-size="20px" font-family="Roboto, sans-serif"><tspan x="12" y="34" dominant-baseline="ideographic">Instant </tspan><tspan x="12" y="58" dominant-baseline="ideographic">Messaging</tspan></text></g></g></g><g id="g-root-tx_improves_4mxsxsflr0g8-fill" data-item-order="0" transform="translate(338, 806)"><g id="tx_improves_4mxsxsflr0g8-fill" stroke="none" fill="#424736"><g><text style="font: 15px Roboto, sans-serif; white-space: pre;" font-size="15px" font-family="Roboto, sans-serif"><tspan x="14.27" y="28" dominant-baseline="ideographic">Improves the clarity and speed </tspan><tspan x="34.48" y="46" dominant-baseline="ideographic">of customer interactions</tspan></text></g></g></g><g id="g-root-tx_6_18itfpcflqzuy-fill" data-item-order="0" transform="translate(434, 237)"><g id="tx_6_18itfpcflqzuy-fill" stroke="none" fill="#ffffff"><g><text style="font: bold 30px Roboto, sans-serif; white-space: pre;" font-weight="bold" font-size="30px" font-family="Roboto, sans-serif"><tspan x="13.39" y="46" dominant-baseline="ideographic">6</tspan></text></g></g></g><g id="g-root-tx_timelyre_1lxebi8flqzgh-fill" data-item-order="0" transform="translate(86, 512)"><g id="tx_timelyre_1lxebi8flqzgh-fill" stroke="none" fill="#e0cb15"><g><text style="font: bold 20px Roboto, sans-serif; white-space: pre;" font-weight="bold" font-size="20px" font-family="Roboto, sans-serif"><tspan x="54.82" y="34" dominant-baseline="ideographic">Timely </tspan><tspan x="17.01" y="58" dominant-baseline="ideographic">Responses</tspan></text></g></g></g><g id="g-root-tx_customer_1lviw8wflr0g5-fill" data-item-order="0" transform="translate(650, 512)"><g id="tx_customer_1lviw8wflr0g5-fill" stroke="none" fill="#3cc583"><g><text style="font: bold 20px Roboto, sans-serif; white-space: pre;" font-weight="bold" font-size="20px" font-family="Roboto, sans-serif"><tspan x="12" y="34" dominant-baseline="ideographic">Customer </tspan><tspan x="12" y="58" dominant-baseline="ideographic">Engagement</tspan></text></g></g></g><g id="g-root-tx_enhances_1d3mqioflqz9i-fill" data-item-order="0" transform="translate(338, 158)"><g id="tx_enhances_1d3mqioflqz9i-fill" stroke="none" fill="#543a3a"><g><text style="font: 15px Roboto, sans-serif; white-space: pre;" font-size="15px" font-family="Roboto, sans-serif"><tspan x="34.74" y="28" dominant-baseline="ideographic">Enhances the quality and </tspan><tspan x="16.24" y="46" dominant-baseline="ideographic">efficiency of customer support</tspan></text></g></g></g><g id="g-root-tx_improved_1qegrswflr0ud-fill" data-item-order="0" transform="translate(350, 98)"><g id="tx_improved_1qegrswflr0ud-fill" stroke="none" fill="#e55753"><g><text style="font: bold 20px Roboto, sans-serif; white-space: pre;" font-weight="bold" font-size="20px" font-family="Roboto, sans-serif"><tspan x="14.8" y="34" dominant-baseline="ideographic">Improved Customer </tspan><tspan x="69.88" y="58" dominant-baseline="ideographic">Service</tspan></text></g></g></g><g id="g-root-tx_4_qqah1cflr020-fill" data-item-order="0" transform="translate(241.5, 545)"><g id="tx_4_qqah1cflr020-fill" stroke="none" fill="#ffffff"><g><text style="font: bold 30px Roboto, sans-serif; white-space: pre;" font-weight="bold" font-size="30px" font-family="Roboto, sans-serif"><tspan x="13.39" y="46" dominant-baseline="ideographic">4</tspan></text></g></g></g><g id="g-root-tx_2_ddl0hsflqzgu-fill" data-item-order="0" transform="translate(574.5, 548)"><g id="tx_2_ddl0hsflqzgu-fill" stroke="none" fill="#ffffff"><g><text style="font: bold 30px Roboto, sans-serif; white-space: pre;" font-weight="bold" font-size="30px" font-family="Roboto, sans-serif"><tspan x="13.39" y="46" dominant-baseline="ideographic">2</tspan></text></g></g></g><g id="g-root-tx_ensuresq_zqx9z4flqyoa-fill" data-item-order="0" transform="translate(38, 572)"><g id="tx_ensuresq_zqx9z4flqyoa-fill" stroke="none" fill="#46432d"><g><text style="font: 15px Roboto, sans-serif; white-space: pre;" font-size="15px" font-family="Roboto, sans-serif"><tspan x="42.29" y="31" dominant-baseline="ideographic">Ensures quick and </tspan><tspan x="20.99" y="49" dominant-baseline="ideographic">relevant responses to </tspan><tspan x="40.1" y="67" dominant-baseline="ideographic">customer inquiries</tspan></text></g></g></g><g id="g-root-tx_increase_18kouyoflqyva-fill" data-item-order="0" transform="translate(650, 572)"><g id="tx_increase_18kouyoflqyva-fill" stroke="none" fill="#374840"><g><text style="font: 15px Roboto, sans-serif; white-space: pre;" font-size="15px" font-family="Roboto, sans-serif"><tspan x="12" y="31" dominant-baseline="ideographic">Increases interaction </tspan><tspan x="12" y="49" dominant-baseline="ideographic">and involvement with </tspan><tspan x="12" y="67" dominant-baseline="ideographic">customers</tspan></text></g></g></g><g id="g-root-tx_enhancin_dikt6oflplhn-fill" data-item-order="0" transform="translate(92, 38)"><g id="tx_enhancin_dikt6oflplhn-fill" stroke="none" fill="#484848"><g><text style="font: bold 30px Roboto, sans-serif; white-space: pre;" font-weight="bold" font-size="30px" font-family="Roboto, sans-serif"><tspan x="12.59" y="46" dominant-baseline="ideographic">Enhancing Customer Engagement with WhatsApp</tspan></text></g></g></g><g id="g-root-tx_3_1hcl0owflr01z-fill" data-item-order="0" transform="translate(434, 667.5)"><g id="tx_3_1hcl0owflr01z-fill" stroke="none" fill="#ffffff"><g><text style="font: bold 30px Roboto, sans-serif; white-space: pre;" font-weight="bold" font-size="30px" font-family="Roboto, sans-serif"><tspan x="13.39" y="46" dominant-baseline="ideographic">3</tspan></text></g></g></g><g id="g-root-tx_effectiv_me7tfkflqy33-fill" data-item-order="0" transform="translate(368, 746)"><g id="tx_effectiv_me7tfkflqy33-fill" stroke="none" fill="#92bd39"><g><text style="font: bold 20px Roboto, sans-serif; white-space: pre;" font-weight="bold" font-size="20px" font-family="Roboto, sans-serif"><tspan x="48.38" y="34" dominant-baseline="ideographic">Effective </tspan><tspan x="16.79" y="58" dominant-baseline="ideographic">Communication</tspan></text></g></g></g><g id="g-root-tx_stronger_mfgrlsflr097-fill" data-item-order="0" transform="translate(74, 284)"><g id="tx_stronger_mfgrlsflr097-fill" stroke="none" fill="#de8431"><g><text style="font: bold 20px Roboto, sans-serif; white-space: pre;" font-weight="bold" font-size="20px" font-family="Roboto, sans-serif"><tspan x="61.84" y="34" dominant-baseline="ideographic">Stronger </tspan><tspan x="17.53" y="58" dominant-baseline="ideographic">Relationships</tspan></text></g></g></g><g id="g-root-cp_0_g-0_1lu9y2oflpk3l-stroke" data-item-order="-665702" transform="translate(398, 458)"><g id="cp_0_g-0_1lu9y2oflpk3l-stroke" fill="none" stroke-linecap="round" stroke-linejoin="round" stroke-miterlimit="4" stroke="#ffffff" stroke-width="2"><g><path d="M 21.231 27.1473C 38.2711 6.8397 68.5473 4.1909 88.8549 21.231C 109.1625 38.2711 111.8113 68.5473 94.7712 88.8549C 77.7312 109.1625 47.4549 111.8113 27.1473 94.7712C 6.8397 77.7312 4.1909 47.4549 21.231 27.1473Z"></path></g></g></g><g id="g-root-cp_1_g-1_18itfpcflploj-stroke" data-item-order="-665697" transform="translate(373.9999694824219, 443.804931640625)"><g id="cp_1_g-1_18itfpcflploj-stroke" fill="none" stroke-linecap="round" stroke-linejoin="round" stroke-miterlimit="4" stroke="#1eabda" stroke-width="2"><g><path d="M 118.275131 10C 125.623831 14.2862 132.121931 19.8212 137.495731 26.3223M 144.344431 36.1778C 144.680431 36.7595 145.008631 37.3464 145.328831 37.9384C 151.613331 49.5564 154.580631 62.6794 153.906131 75.871C 153.231531 89.0627 148.941131 101.8145 141.504431 112.731C 134.067631 123.6474 123.771231 132.3077 111.742031 137.7641C 99.712831 143.2205 86.414431 145.2626 73.302331 143.6669C 60.190231 142.0712 47.769731 136.8993 37.400131 128.7172C 27.030631 120.5351 19.111831 109.6581 14.510231 97.2767C 9.908731 84.8952 8.801831 71.4866 11.310831 58.5182"></path></g></g></g><g id="g-root-cp_1_g-1_1_zn6fggflpmh9-stroke" data-item-order="-665694" transform="translate(499, 383.50390625)"><g id="cp_1_g-1_1_zn6fggflpmh9-stroke" fill="none" stroke-linecap="round" stroke-linejoin="round" stroke-miterlimit="4" stroke="#ffffff" stroke-width="2"><g><path d="M 20.5964 95.353C 18.4664 97.8914 14.6819 98.2225 12.1434 96.0925C 9.605 93.9625 9.2739 90.178 11.4039 87.6395C 13.5339 85.1011 17.3184 84.77 19.8569 86.9C 22.3953 89.03 22.7264 92.8145 20.5964 95.353ZM 49.7046 10.2085C 69.4733 8.087 87.2189 22.3929 89.3404 42.1616C 91.462 61.9304 77.1561 79.676 57.3874 81.7975C 50.4944 82.5372 43.8474 81.2797 38.0229 78.4899L 24.0296 82.6163L 25.0928 68.0661C 21.1306 62.9662 18.4913 56.7374 17.7515 49.8444C 15.63 30.0757 29.9359 12.3301 49.7046 10.2085Z"></path></g></g></g><g id="g-root-cp_2_g-2_v7zef4flpk3r-stroke" data-item-order="-665689" transform="translate(350, 410)"><g id="cp_2_g-2_v7zef4flpk3r-stroke" fill="none" stroke-linecap="round" stroke-linejoin="round" stroke-miterlimit="4" stroke="#3cc583" stroke-width="2"><g><path d="M 31.5572 166.6158C 19.8318 152.2156 12.5346 134.7238 10.5499 116.26C 8.5652 97.7962 11.9783 79.1531 20.3755 62.59C 28.7726 46.0269 41.7935 32.2548 57.86 22.9426C 73.9265 13.6305 92.3491 9.178 110.8951 10.1249C 129.441 11.0718 147.3143 17.3773 162.3489 28.2774C 164.8785 30.1113 167.3095 32.0621 169.6352 34.1211M 185.6436 52.4005C 189.6514 58.3556 192.9981 64.7703 195.6006 71.5363C 202.2672 88.8685 203.7638 107.7623 199.909 125.9279C 198.7203 131.5296 197.0384 136.9879 194.8956 142.2437M 189.6866 153.0379C 185.4162 160.6356 180.1092 167.6554 173.8823 173.8823"></path></g></g></g><g id="g-root-cp_2_g-2_1_hwiw1sflplop-stroke" data-item-order="-665686" transform="translate(526, 529.85498046875)"><g id="cp_2_g-2_1_hwiw1sflplop-stroke" fill="none" stroke-linecap="round" stroke-linejoin="round" stroke-miterlimit="4" stroke="#ffffff" stroke-width="2"><g><path d="M 20.5964 31.5014C 18.4664 34.0398 14.6819 34.3709 12.1434 32.2409C 9.605 30.1109 9.2739 26.3264 11.4039 23.7879C 13.5339 21.2495 17.3184 20.9184 19.8569 23.0484C 22.3953 25.1784 22.7264 28.9629 20.5964 31.5014ZM 102.722 30.1147C 111.4996 47.9545 104.1533 69.5322 86.3136 78.3098C 68.4738 87.0874 46.8961 79.7411 38.1185 61.9014C 35.0579 55.681 33.9576 49.0062 34.579 42.578L 25.9004 30.851L 39.9317 26.8557C 43.3619 21.3838 48.3065 16.7669 54.5269 13.7063C 72.3667 4.9287 93.9443 12.275 102.722 30.1147Z"></path></g></g></g><g id="g-root-cp_3_g-3_dgpdxcflpmgz-stroke" data-item-order="-665681" transform="translate(326, 386)"><g id="cp_3_g-3_dgpdxcflpmgz-stroke" fill="none" stroke-linecap="round" stroke-linejoin="round" stroke-miterlimit="4" stroke="#92bd39" stroke-width="2"><g><path d="M 171.3259 17.3405C 148.2842 8.8883 123.2049 7.7045 99.4695 13.9488C 75.7341 20.1931 54.4841 33.5651 38.5847 52.2619C 22.6853 70.9586 12.9011 94.081 10.5513 118.5113C 8.2016 142.9415 13.3993 167.5049 25.4436 188.8893C 37.488 210.2737 55.7997 227.4508 77.9098 238.1046C 92.4149 245.0939 108.097 249.0551 124.0105 249.8505M 135.9904 249.8505C 140.3656 249.6318 144.7404 249.1729 149.0954 248.471C 173.3257 244.5655 195.7758 233.3243 213.4188 216.2631C 221.731 208.2249 228.7879 199.0771 234.4203 189.1305M 247.7645 153.0553C 247.0138 156.8896 246.0789 160.6725 244.9662 164.3921"></path></g></g></g><g id="g-root-cp_3_g-3_1_4lourkflpk3x-stroke" data-item-order="-665678" transform="translate(409.75994873046875, 619.5)"><g id="cp_3_g-3_1_4lourkflpk3x-stroke" fill="none" stroke-linecap="round" stroke-linejoin="round" stroke-miterlimit="4" stroke="#ffffff" stroke-width="2"><g><path d="M 50.836661 19.8569C 48.706661 22.3953 44.922161 22.7264 42.383661 20.5964C 39.845261 18.4664 39.514161 14.6819 41.644161 12.1434C 43.774161 9.605 47.558761 9.2739 50.097161 11.4039C 52.635561 13.5339 52.966761 17.3184 50.836661 19.8569ZM 20.105261 100.5548C 33.917461 114.8561 56.707961 115.2526 71.009261 101.4404C 85.310561 87.6282 85.707061 64.8377 71.894861 50.5364C 67.078861 45.5498 61.171261 42.2538 54.912561 40.6611L 46.240261 28L 38.306561 40.3722C 31.996261 41.7462 25.977561 44.8347 20.990961 49.6508C 6.689561 63.463 6.293061 86.2535 20.105261 100.5548Z"></path></g></g></g><g id="g-root-cp_4_g-4_5vcn4flpkw7-stroke" data-item-order="-665673" transform="translate(302, 362)"><g id="cp_4_g-4_5vcn4flpkw7-stroke" fill="none" stroke-linecap="round" stroke-linejoin="round" stroke-miterlimit="4" stroke="#e0cb15" stroke-width="2"><g><path d="M 11.8663 177.1082C 9.414 162.0239 9.3631 146.553 11.8044 131.2765C 16.5867 101.3509 30.6884 73.6968 52.1017 52.2519C 73.515 30.807 101.1482 16.6645 131.0667 11.8381C 160.9853 7.0116 191.6639 11.7474 218.7344 25.3709C 224.4096 28.227 229.8655 31.4432 235.0733 34.9909M 281.1677 86.4396C 281.3929 86.8635 281.616 87.2887 281.8372 87.7151C 295.7871 114.6189 300.8934 145.238 296.4292 175.2127C 296.2959 176.1077 296.1542 177.0008 296.0043 177.8918M 269.5616 239.9164C 265.7174 245.087 261.5148 250.0148 256.9732 254.6607C 235.7888 276.3318 208.3073 290.7669 178.4417 295.9107M 14.2837 188.8617C 16.8656 199.21 20.6035 209.2964 25.4666 218.9241"></path></g></g></g><g id="g-root-cp_4_g-4_1_1lviw8wflpma1-stroke" data-item-order="-665670" transform="translate(217.14498901367188, 527.02294921875)"><g id="cp_4_g-4_1_1lviw8wflpma1-stroke" fill="none" stroke-linecap="round" stroke-linejoin="round" stroke-miterlimit="4" stroke="#ffffff" stroke-width="2"><g><path d="M 11.380831 36.1669C 5.945031 55.2916 17.042131 75.2019 36.166931 80.6377C 55.291731 86.0735 75.201931 74.9763 80.637731 55.8516C 82.533031 49.1832 82.418431 42.4193 80.654231 36.2067L 87.088831 23.1133L 72.568531 21.6994C 68.212631 16.9313 62.520131 13.2762 55.851631 11.3808C 36.726831 5.945 16.816631 17.0421 11.380831 36.1669ZM 102.451931 21.8334C 100.321931 24.3719 96.537331 24.703 93.998931 22.573C 91.460431 20.443 91.129331 16.6584 93.259331 14.12C 95.389331 11.5815 99.173931 11.2504 101.712331 13.3804C 104.250831 15.5104 104.581931 19.295 102.451931 21.8334Z"></path></g></g></g><g id="g-root-cp_5_g-5_1hgbv7kflpjwj-stroke" data-item-order="-665665" transform="translate(278, 373.738037109375)"><g id="cp_5_g-5_1hgbv7kflpjwj-stroke" fill="none" stroke-linecap="round" stroke-linejoin="round" stroke-miterlimit="4" stroke="#de8431" stroke-width="2"><g><path d="M 74.4093 10C 64.075 18.0941 54.7723 27.3339 46.6593 37.5059M 13.2474 175.1331C 12.9271 173.5276 12.63 171.916 12.3562 170.2988C 7.3069 140.468 10.407 109.8272 21.3292 81.6123C 26.0556 69.403 32.1706 57.8441 39.5176 47.1473M 21.0455 202.1716C 27.8247 219.9315 37.5982 236.4882 50.0164 251.0919C 69.6157 274.1405 95.0756 291.4686 123.7073 301.2462C 130.6115 303.6039 137.6382 305.5015 144.7421 306.9362M 316.0161 238.0501C 309.043 248.0973 300.9637 257.3963 291.8947 265.7599C 269.6538 286.2712 242.2865 300.3958 212.6832 306.6418C 212.0614 306.773 211.4391 306.9007 210.8163 307.0247M 342.677 175.5104C 347.6442 150.9093 347.0485 125.4406 340.8515 100.9888"></path></g></g></g><g id="g-root-cp_5_g-5_1_18kouyoflpkp9-stroke" data-item-order="-665662" transform="translate(231.7430419921875, 330.22998046875)"><g id="cp_5_g-5_1_18kouyoflpkp9-stroke" fill="none" stroke-linecap="round" stroke-linejoin="round" stroke-miterlimit="4" stroke="#ffffff" stroke-width="2"><g><path d="M 93.8542 89.6264C 91.7242 92.1648 87.9397 92.4959 85.4012 90.3659C 82.8628 88.2359 82.5317 84.4514 84.6617 81.9129C 86.7917 79.3745 90.5762 79.0434 93.1147 81.1734C 95.6531 83.3034 95.9842 87.0879 93.8542 89.6264ZM 44.1537 10.0483C 24.2976 11.0685 9.0281 27.992 10.0483 47.848C 11.0685 67.7041 27.992 82.9736 47.848 81.9534C 54.7715 81.5977 61.1373 79.3085 66.4493 75.6356L 80.9181 77.5055L 77.5752 63.3046C 80.6844 57.644 82.3091 51.0771 81.9534 44.1537C 80.9333 24.2976 64.0097 9.0281 44.1537 10.0483Z"></path></g></g></g><g id="g-root-cp_6_g-6_144vcu8flplhj-stroke" data-item-order="-665657" transform="translate(254, 314.093994140625)"><g id="cp_6_g-6_144vcu8flplhj-stroke" fill="none" stroke-linecap="round" stroke-linejoin="round" stroke-miterlimit="4" stroke="#e55753" stroke-width="2"><g><path d="M 195.955 10.0028C 162.662 11.0513 130.1386 20.7486 101.6262 38.234C 84.7783 48.5661 69.7191 61.3794 56.9102 76.1583M 11.1609 222.9886C 7.2782 187.8421 13.1743 152.2621 28.2567 120.1934C 32.9349 110.2465 38.4369 100.765 44.6834 91.8374M 207.952 10C 245.383 11.1609 281.6574 23.2428 312.3091 44.7583C 342.9631 66.2755 366.6548 96.2882 380.4667 131.1004C 394.2786 165.9127 397.6075 204.0044 390.0436 240.6847M 30.3899 288.0118C 37.7519 302.6848 47.0031 316.4288 57.9722 328.8721C 82.7383 356.9666 115.1804 377.2046 151.3033 387.0937"></path></g></g></g><g id="g-root-cp_6_g-6_1_zp1upsflpm9t-stroke" data-item-order="-665654" transform="translate(410, 219)"><g id="cp_6_g-6_1_zp1upsflpm9t-stroke" fill="none" stroke-linecap="round" stroke-linejoin="round" stroke-miterlimit="4" stroke="#ffffff" stroke-width="2"><g><path d="M 50.5495 108.81C 48.4195 111.3484 44.635 111.6795 42.0965 109.5495C 39.5581 107.4195 39.227 103.635 41.357 101.0965C 43.487 98.5581 47.2715 98.227 49.81 100.357C 52.3484 102.487 52.6795 106.2715 50.5495 108.81ZM 71.3456 20.4344C 57.2261 6.4364 34.4324 6.5349 20.4344 20.6544C 6.4364 34.7739 6.5349 57.5676 20.6544 71.5656C 25.5776 76.4464 31.5554 79.6134 37.8472 81.0698L 46.2032 93.0288L 54.4555 80.9981C 60.7345 79.4874 66.6848 76.2688 71.5656 71.3456C 85.5636 57.2261 85.4651 34.4324 71.3456 20.4344Z"></path></g></g></g><g id="g-root-ic_wech_1lxebi8flplak-stroke" data-item-order="-2304" transform="translate(421.906005859375, 482.133056640625)"></g><g id="g-root-tx_enablesr_4lourkflqya4-stroke" data-item-order="0" transform="translate(650, 344)"></g><g id="g-root-tx_5_3zxdsflr021-stroke" data-item-order="0" transform="translate(255.5, 348.5)"></g><g id="g-root-tx_buildstr_4ot874flqzgk-stroke" data-item-order="0" transform="translate(50, 344)"></g><g id="g-root-tx_1_zk220wflr091-stroke" data-item-order="0" transform="translate(530.5, 401.5)"></g><g id="g-root-tx_instantm_qs5waoflqz2b-stroke" data-item-order="0" transform="translate(650, 284)"></g><g id="g-root-tx_improves_4mxsxsflr0g8-stroke" data-item-order="0" transform="translate(338, 806)"></g><g id="g-root-tx_6_18itfpcflqzuy-stroke" data-item-order="0" transform="translate(434, 237)"></g><g id="g-root-tx_timelyre_1lxebi8flqzgh-stroke" data-item-order="0" transform="translate(86, 512)"></g><g id="g-root-tx_customer_1lviw8wflr0g5-stroke" data-item-order="0" transform="translate(650, 512)"></g><g id="g-root-tx_enhances_1d3mqioflqz9i-stroke" data-item-order="0" transform="translate(338, 158)"></g><g id="g-root-tx_improved_1qegrswflr0ud-stroke" data-item-order="0" transform="translate(350, 98)"></g><g id="g-root-tx_4_qqah1cflr020-stroke" data-item-order="0" transform="translate(241.5, 545)"></g><g id="g-root-tx_2_ddl0hsflqzgu-stroke" data-item-order="0" transform="translate(574.5, 548)"></g><g id="g-root-tx_ensuresq_zqx9z4flqyoa-stroke" data-item-order="0" transform="translate(38, 572)"></g><g id="g-root-tx_increase_18kouyoflqyva-stroke" data-item-order="0" transform="translate(650, 572)"></g><g id="g-root-tx_enhancin_dikt6oflplhn-stroke" data-item-order="0" transform="translate(92, 38)"></g><g id="g-root-tx_3_1hcl0owflr01z-stroke" data-item-order="0" transform="translate(434, 667.5)"></g><g id="g-root-tx_effectiv_me7tfkflqy33-stroke" data-item-order="0" transform="translate(368, 746)"></g><g id="g-root-tx_stronger_mfgrlsflr097-stroke" data-item-order="0" transform="translate(74, 284)"></g></g></g></svg>