<?xml version="1.0" encoding="utf-8" standalone="yes"?>
<!DOCTYPE svg PUBLIC "-//W3C//DTD SVG 1.1//EN" "http://www.w3.org/Graphics/SVG/1.1/DTD/svg11.dtd">
<svg width="780" height="780" viewBox="0 0 780 780" style="fill:none;stroke:none;fill-rule:evenodd;clip-rule:evenodd;stroke-linecap:round;stroke-linejoin:round;stroke-miterlimit:1.5;" version="1.1" xmlns="http://www.w3.org/2000/svg" xmlns:xlink="http://www.w3.org/1999/xlink"><style class="text-font-style fontImports" data-font-family="Roboto">@import url('https://fonts.googleapis.com/css2?family=Roboto:wght@400;700&amp;display=block');</style><g id="items" style="isolation: isolate"><g id="blend" style="mix-blend-mode: normal"><g id="g-root-cp_1_g-1_1hhlc75fbsrgl-fill" data-item-order="-500678" transform="translate(83.9429931640625, 158)"><g id="cp_1_g-1_1hhlc75fbsrgl-fill" stroke="none" fill="#1eabda"><g><path d="M 215.349 94L 10 94C 28.9676 77.3931 53.7714 66.9398 84.4115 62.64L 84.4115 24C 84.4115 19.8933 85.622 16.5333 88.0429 13.92C 90.4638 11.3067 93.5764 10 97.3808 10L 134.214 10C 137.672 10 140.612 11.3067 143.033 13.92C 145.454 16.5333 146.664 19.8933 146.664 24L 146.664 63.76C 170.528 67.8667 190.414 75.7067 206.323 87.28C 209.482 89.4565 212.49 91.6965 215.349 94Z"></path></g></g></g><g id="g-root-cp_2_g-2_18lyby9fbss9b-fill" data-item-order="-500674" transform="translate(47.87199401855469, 326)"><g id="cp_2_g-2_18lyby9fbss9b-fill" stroke="none" fill="#3cc583"><g><path d="M 266.171 94L 52.4877 94C 40.2869 85.6356 30.6153 75.7423 23.4729 64.32C 14.7822 49.5263 10.2912 31.4196 10 10L 94.2532 10C 94.9883 17.0582 97.5064 23.2182 101.8074 28.48C 106.9951 34.4533 115.468 39.8667 127.227 44.72C 138.986 49.2 154.895 54.24 174.954 59.84C 205.389 66.56 230.117 74.5867 249.138 83.92C 255.373 86.9792 261.051 90.3392 266.171 94Z"></path></g></g></g><g id="g-root-cp_3_g-3_1464tttfbst1l-fill" data-item-order="-500670" transform="translate(47.85600280761719, 242)"><g id="cp_3_g-3_1464tttfbst1l-fill" stroke="none" fill="#92bd39"><g><path d="M 213.209 93.245C 213.751 93.5375 214.345 93.7873 214.973 94C 217.553 94.8732 220.713 95.12 223.216 95.12L 281.837 95.12C 283.634 95.12 285.258 94.7467 286.709 94C 287.772 93.4534 288.741 92.7067 289.618 91.76C 291.693 89.1467 292.73 86.3466 292.73 83.36C 292.385 69.92 287.889 56.1067 279.242 41.92C 272.555 30.1895 263.286 19.5495 251.436 10L 46.0868 10C 43.6449 12.138 41.2997 14.378 39.0512 16.72C 19.6837 37.2533 10 62.2667 10 91.76C 10 92.5107 10.0051 93.2573 10.0152 94L 94.2683 94C 94.1168 92.5448 94.041 91.0515 94.041 89.52C 94.041 75.7067 99.0558 65.44 109.0853 58.72C 119.115 52 132.603 48.64 149.549 48.64C 165.458 48.64 178.601 52.3733 188.976 59.84C 199.352 66.9333 205.404 75.3333 207.133 85.04C 207.7 88.2197 210.442 91.7517 213.209 93.245Z"></path></g></g></g><g id="g-root-cp_4_g-4_zqbbpdfbsttv-fill" data-item-order="-500666" transform="translate(90.3590087890625, 410)"><g id="cp_4_g-4_zqbbpdfbsttv-fill" stroke="none" fill="#e0cb15"><g><path d="M 223.683 10C 234.184 17.508 242.34 26.2814 248.152 36.32C 257.145 50.88 261.641 69.36 261.641 91.76C 261.641 92.5096 261.635 93.2563 261.623 94L 177.568 94C 177.226 85.0648 174.124 77.7848 168.262 72.16C 162.382 66.1867 152.871 60.7733 139.729 55.92C 126.933 51.0667 109.6405 45.84 87.8521 40.24C 61.9135 34.2667 39.9522 26.6133 21.9681 17.28C 17.7398 14.9978 13.7504 12.5711 10 10L 223.683 10Z"></path></g></g></g><g id="g-root-cp_5_g-5_qvasjlfbsrgt-fill" data-item-order="-500662" transform="translate(38, 489.52001953125)"><g id="cp_5_g-5_qvasjlfbsrgt-fill" stroke="none" fill="#de8431"><g><path d="M 12.6221 14.48C 12.7786 14.2908 12.9422 14.1042 13.1128 13.92C 15.5337 11.3067 18.3005 10 21.4131 10L 76.9217 10C 81.4177 10 86.0576 11.1039 88.4786 13.3438C 88.9603 13.7153 89.4182 14.0903 89.853 14.48C 91.6029 16.0486 92.9792 17.8569 94.041 20.6405C 96.4619 26.9872 100.2662 33.1471 105.4539 39.1205C 110.987 45.0938 118.423 50.1338 127.761 54.2405C 137.099 57.9738 148.685 59.8405 162.519 59.8405C 184.999 59.8405 201.772 55.9205 212.84 48.0805C 224.253 40.2405 229.959 29.6005 229.959 16.1605C 229.959 15.5941 229.948 15.0341 229.927 14.4805L 313.982 14.4805C 313.647 35.222 308.638 53.702 298.956 69.9205C 292.286 80.8437 283.782 90.3636 273.442 98.4805L 49.4052 98.4805C 39.0416 90.0332 30.7484 80.5132 24.5256 69.9205C 15.5336 54.6138 10.6917 38.5605 10 21.7605C 10 19.0193 10.8741 16.5922 12.6221 14.48Z"></path></g></g></g><g id="g-root-cp_6_g-6_mfhaf5fbss93-fill" data-item-order="-500658" transform="translate(77.40499877929688, 578)"><g id="cp_6_g-6_mfhaf5fbss93-fill" stroke="none" fill="#e55753"><g><path d="M 94.5811 90.08C 97.0021 92.6934 100.1147 94 103.919 94L 140.752 94C 144.21 94 147.15 92.6934 149.571 90.08C 151.992 87.4667 153.202 84.1067 153.202 80L 153.202 41.36C 177.757 38 199.027 31.28 217.011 21.2C 223.152 17.8229 228.828 14.0895 234.037 10L 10 10C 14.6119 13.7591 19.6339 17.3058 25.0658 20.64C 42.704 31.0933 64.6653 38 90.9497 41.36L 90.9497 80C 90.9497 84.1067 92.1602 87.4667 94.5811 90.08Z"></path></g></g></g><g id="g-root-cp_1_text-1_hznsapfbst1d-fill" data-item-order="-500649" transform="translate(446, 122)"></g><g id="g-root-cp_2_text-2_940s1tfbstu3-fill" data-item-order="-500633" transform="translate(446, 218)"></g><g id="g-root-cp_3_text-3_4otr0hfbsrgl-fill" data-item-order="-500619" transform="translate(446, 314)"></g><g id="g-root-cp_4_text-4_1qeham9fbssuf-fill" data-item-order="-500605" transform="translate(446, 434)"></g><g id="g-root-cp_5_text-5_1lynshtfbstmp-fill" data-item-order="-500591" transform="translate(446, 530)"></g><g id="g-root-cp_6_text-6_1d3n9c1fbsr9n-fill" data-item-order="-500577" transform="translate(446, 626)"></g><g id="g-root-ic_incr_18gc5c1fbaknb-fill" data-item-order="-2304" transform="translate(386, 632)"><g id="ic_incr_18gc5c1fbaknb-fill" stroke="none" fill="#e55753"><g><path d="M 38 50.5C 38 51.052284 38.447716 51.5 39 51.5L 45 51.5C 45.552284 51.5 46 51.052284 46 50.5L 46 23.5C 46 22.395432 45.104568 21.5 44 21.5L 40 21.5C 38.895432 21.5 38 22.395432 38 23.5ZM 56 11.5L 52 11.5C 50.895432 11.5 50 12.395431 50 13.5L 50 50.5C 50 51.052284 50.447716 51.5 51 51.5L 57 51.5C 57.552284 51.5 58 51.052284 58 50.5L 58 13.5C 58 12.395431 57.104568 11.5 56 11.5ZM 56 54L 12 54C 10.895431 54 10 54.895432 10 56C 10 57.104568 10.895431 58 12 58L 56 58C 57.104568 58 58 57.104568 58 56C 58 54.895432 57.104568 54 56 54ZM 23.5 27C 24.16329 27.004961 24.799541 26.737446 25.260002 26.26L 33.5 18C 33.687767 17.810688 33.943363 17.704201 34.209999 17.704201C 34.476639 17.704201 34.732231 17.810688 34.919998 18L 35.440002 18.52C 35.863777 18.943695 36.499069 19.074505 37.055763 18.852699C 37.612457 18.630892 37.983715 18.099033 38 17.5L 38 11.5C 37.989227 10.676076 37.323921 10.010772 36.5 10L 30.5 10C 29.895235 9.995904 29.348822 10.36018 29.120001 10.92C 28.884123 11.480967 29.01054 12.128855 29.440001 12.56L 29.959999 13.08C 30.149313 13.267767 30.255798 13.523362 30.255798 13.79C 30.255798 14.056638 30.149313 14.312233 29.959999 14.5L 21.74 22.74C 21.270996 23.205599 21.007227 23.839134 21.007227 24.5C 21.007227 25.160868 21.270996 25.794401 21.74 26.26C 22.20046 26.737446 22.836712 27.004961 23.5 27ZM 10 10M 27.540001 32.66L 19.540001 27.66C 19.214132 27.438299 18.785866 27.438299 18.459999 27.66L 10.46 32.66C 10.17384 32.843597 10.000566 33.160007 10 33.5L 10 50.5C 10 51.052284 10.447715 51.5 11 51.5L 15 51.5C 15.552284 51.5 16 51.052284 16 50.5L 16 47.5C 16 46.947716 16.447716 46.5 17 46.5L 21 46.5C 21.552284 46.5 22 46.947716 22 47.5L 22 50.5C 22 51.052284 22.447716 51.5 23 51.5L 27 51.5C 27.552284 51.5 28 51.052284 28 50.5L 28 33.5C 27.999434 33.160007 27.82616 32.843597 27.540001 32.66ZM 22 43.5L 16 43.5C 15.171574 43.5 14.5 42.828426 14.5 42C 14.5 41.171574 15.171574 40.5 16 40.5L 22 40.5C 22.828426 40.5 23.5 41.171574 23.5 42C 23.5 42.828426 22.828426 43.5 22 43.5ZM 22 37.5L 16 37.5C 15.171574 37.5 14.5 36.82843 14.5 36C 14.5 35.171574 15.171574 34.5 16 34.5L 22 34.5C 22.828426 34.5 23.5 35.171574 23.5 36C 23.5 36.82843 22.828426 37.5 22 37.5Z"></path></g></g></g><g id="g-root-ic_floa_dbq41tfbu7eo-fill" data-item-order="-2304" transform="translate(386, 128)"><g id="ic_floa_dbq41tfbu7eo-fill" stroke="none" fill="#1eabda"><g><path d="M 34 10C 20.745167 10 10.000001 20.745167 10.000002 34C 10.000002 47.254833 20.745167 58 34 58C 47.254833 58 58 47.254833 58 34C 58 20.745167 47.254837 10 34 10ZM 34 54C 22.954306 54 14 45.045696 14 34C 14 22.954306 22.954306 14 34 14C 45.045696 14 54 22.954306 54 34C 54 45.045696 45.045696 54 34 54ZM 26 34C 26 38.418278 29.581722 42 34 42C 38.418278 42 42 38.418278 42 34C 42 29.581722 38.418278 26 34 26C 29.581722 26 26 29.581722 26 34M 18 31.24L 22.58 31.24C 23.011646 31.239294 23.396118 30.966961 23.540001 30.559999C 24.644855 27.24564 27.24564 24.644855 30.559999 23.540001C 30.960144 23.398636 31.230951 23.024284 31.24 22.599998L 31.24 18C 31.241753 17.689383 31.101871 17.394894 30.859999 17.200001C 30.617798 17.007654 30.299009 16.940931 30 17.02C 23.562126 18.535427 18.535427 23.562126 17.02 30C 16.94754 30.29278 17.013933 30.602617 17.200001 30.84C 17.390871 31.089376 17.685976 31.236929 18 31.24ZM 37.440002 23.540001C 40.766415 24.625278 43.374722 27.233585 44.459999 30.559999C 44.603882 30.966961 44.988354 31.239294 45.419998 31.24L 50 31.24C 50.305672 31.244753 50.595333 31.103636 50.779999 30.859999C 50.973717 30.618536 51.047291 30.302164 50.98 30C 49.464577 23.562126 44.437874 18.535427 38 17.02C 37.697838 16.952709 37.381462 17.026283 37.139999 17.219999C 36.896362 17.404663 36.755245 17.694324 36.759998 18L 36.760002 22.58C 36.760704 23.011646 37.033035 23.396118 37.439999 23.540001ZM 30.559999 44.459999C 27.233585 43.374722 24.625278 40.766415 23.540001 37.440002C 23.396118 37.033035 23.011646 36.760704 22.58 36.760002L 18 36.760002C 17.694324 36.755245 17.404663 36.896362 17.219999 37.139999C 17.026283 37.381462 16.952709 37.697838 17.02 38C 18.535427 44.437874 23.562126 49.464577 30 50.98C 30.295864 51.046928 30.606043 50.973076 30.84 50.779999C 31.083635 50.595333 31.224752 50.305672 31.219999 49.999996L 31.219999 45.419998C 31.222357 44.993481 30.959078 44.610531 30.559999 44.459999ZM 50.799999 37.139999C 50.605103 36.898129 50.310616 36.758247 50 36.760002L 45.419998 36.760002C 44.988354 36.760704 44.603882 37.033035 44.459999 37.439999C 43.36478 40.753269 40.770134 43.355335 37.459999 44.459999C 37.059856 44.601364 36.789047 44.975716 36.779999 45.399998L 36.779999 50C 36.778404 50.304962 36.918869 50.593288 37.16 50.779999C 37.391003 50.978935 37.704132 51.05349 38 50.98C 44.450993 49.467979 49.48798 44.430992 51 37.98C 51.066929 37.684135 50.993076 37.373955 50.799999 37.139999Z"></path></g></g></g><g id="g-root-ic_chec_1hduhohfbu8eb-fill" data-item-order="-2304" transform="translate(386, 224)"><g id="ic_chec_1hduhohfbu8eb-fill" stroke="none" fill="#3cc583"><g><path d="M 40.27 14.344C 41.052589 13.592893 41.078106 12.349587 40.327 11.567C 39.57589 10.784412 38.332588 10.758893 37.549999 11.51L 33.98 14.936L 32.393997 13.456C 31.597218 12.748856 30.381954 12.805864 29.654871 13.584496C 28.927788 14.363126 28.954021 15.579443 29.714001 16.326L 32.66 19.076C 33.422607 19.787134 34.608009 19.778355 35.360001 19.056L 40.27 14.344ZM 23.470001 22.507999C 22.386093 22.509104 21.507999 23.388094 21.507999 24.472L 21.507999 55.071999C 21.507999 56.158001 22.388 57.035999 23.472 57.035999L 44.528 57.035999C 45.613998 57.035999 46.492001 56.155998 46.492001 55.074001L 46.492001 24.472C 46.492001 23.387314 45.61269 22.507999 44.528 22.507999L 23.472 22.507999ZM 42.563999 43.164001L 42.563999 36.571999L 25.434 36.571999L 25.434 43.164001L 42.566002 43.164001ZM 25.434 47.091999L 42.566002 47.091999L 42.566002 53.110001L 25.431999 53.110001L 25.431999 47.09ZM 42.566002 26.436001L 42.566002 32.643997L 25.431999 32.643997L 25.431999 26.436001L 42.563999 26.436001ZM 51.216 33.506001C 50.131313 33.506001 49.252003 34.385315 49.252003 35.470001C 49.252003 36.554688 50.131313 37.433998 51.216 37.433998L 53.571999 37.433998L 53.571999 41.362L 51.216 41.362C 50.499748 41.339134 49.827896 41.708199 49.463005 42.324963C 49.098114 42.941727 49.098114 43.708275 49.463005 44.325039C 49.827896 44.941799 50.499748 45.310867 51.216 45.288002L 53.571999 45.287998L 53.571999 49.216L 51.216 49.216C 50.131313 49.216 49.252003 50.095314 49.252003 51.18C 49.252003 52.26469 50.131313 53.144001 51.216 53.144001L 53.571999 53.144001C 54.608002 53.144001 55.624001 52.790001 56.383999 52.028C 57.146 51.268002 57.5 50.251999 57.5 49.216L 57.5 29.58C 57.5 28.544001 57.146 27.530001 56.383999 26.768C 55.624001 26.007999 54.608002 25.652 53.571999 25.652L 51.216 25.652C 50.131313 25.652 49.252003 26.531313 49.252003 27.616001C 49.252003 28.700687 50.131313 29.58 51.216 29.58L 53.571999 29.58L 53.571999 33.507999L 51.216 33.507999ZM 10.5 29.577999L 10.5 49.216C 10.5 50.251999 10.854 51.268002 11.616 52.028C 12.375999 52.790001 13.392 53.144001 14.427999 53.144001L 16.784 53.144001C 17.868687 53.144001 18.748001 52.26469 18.748001 51.18C 18.748001 50.095314 17.868687 49.216 16.784 49.216L 14.427999 49.216L 14.427999 45.287998L 16.784 45.287998C 17.500254 45.310867 18.172106 44.941799 18.536995 44.325039C 18.901886 43.708275 18.901886 42.941727 18.536995 42.324963C 18.172106 41.708199 17.500254 41.339134 16.784 41.362L 14.427999 41.362L 14.427999 37.433998L 16.784 37.433998C 17.868687 37.433998 18.748001 36.554688 18.748001 35.470001C 18.748001 34.385315 17.868687 33.506001 16.784 33.506001L 14.427999 33.506001L 14.427999 29.577999L 16.784 29.577999C 17.868687 29.578001 18.748001 28.698689 18.748001 27.614C 18.748001 26.529314 17.868687 25.650002 16.784 25.650002L 14.427999 25.65C 13.392 25.65 12.375999 26.004 11.616 26.766001C 10.854 27.525999 10.5 28.542 10.5 29.577999Z"></path></g></g></g><g id="g-root-ic_sync_18lyf41fb93ic-fill" data-item-order="-2304" transform="translate(386, 536)"><g id="ic_sync_18lyf41fb93ic-fill" stroke="none" fill="#de8431"><g><path d="M 18.5 16.84L 10 12.12L 10 33.360001C 9.99694 33.831581 10.24951 34.267841 10.66 34.5L 18.5 39.16ZM 26.379999 10L 12.38 10L 20 14.26C 20.896355 14.654957 21.476265 15.540497 21.48 16.52L 21.48 34.120003L 27.040001 34.120003C 27.393461 34.119999 27.68 33.833462 27.68 33.48L 27.68 11.28C 27.669073 10.569853 27.090231 9.999916 26.379999 10ZM 46.799999 16.780001L 41.620003 16.780001L 42.759998 15.66C 43.138626 15.284467 43.351597 14.773275 43.351597 14.24C 43.351597 13.706725 43.138626 13.195534 42.759998 12.82C 41.979927 12.044553 40.720078 12.044553 39.940002 12.82L 35.379997 17.380001C 34.604553 18.160076 34.604553 19.419926 35.379997 20.200001L 40 24.74C 40.780075 25.515448 42.039925 25.515448 42.82 24.74C 43.595448 23.959925 43.595448 22.700075 42.82 21.92L 41.68 20.779999L 46.799999 20.779999C 47.904568 20.779999 48.799999 21.67543 48.799999 22.779999L 48.799999 24.779999C 48.799999 25.884569 49.695431 26.780001 50.799999 26.780001C 51.904568 26.780001 52.799999 25.884569 52.799999 24.779999L 52.799999 22.779999C 52.800003 19.466291 50.113708 16.780001 46.799999 16.780001ZM 10 10M 34.220001 49.380001L 29.66 44.82C 28.879925 44.044552 27.620075 44.044552 26.84 44.82C 26.461374 45.195534 26.248404 45.706726 26.248404 46.240002C 26.248404 46.773273 26.461374 47.284466 26.84 47.66L 27.98 48.779999L 22.799999 48.779999C 21.695431 48.779999 20.799999 47.884571 20.799999 46.779999L 20.799999 44.779999C 20.799999 43.67543 19.90457 42.779999 18.799999 42.779999C 17.695431 42.779999 16.799999 43.67543 16.799999 44.779999L 16.799999 46.779999C 16.799999 50.093708 19.486292 52.780003 22.799999 52.780003L 28 52.779999L 26.84 54C 26.263081 54.572182 26.089676 55.436535 26.401258 56.186962C 26.712839 56.937393 27.44747 57.424725 28.26 57.419998C 28.787539 57.412487 29.290739 57.196827 29.66 56.82L 34.220001 52.279999C 34.617462 51.902412 34.842503 51.378223 34.842503 50.830002C 34.842503 50.281776 34.617462 49.757587 34.220001 49.380001ZM 53.419998 30.440001L 44.220001 30.440001C 41.698326 30.439976 39.651009 32.478348 39.639999 35L 39.639999 53.419998C 39.650955 55.944912 41.695084 57.989044 44.219997 57.999996L 53.419998 58C 55.944912 57.989044 57.989044 55.944912 57.999996 53.419998L 58 35C 57.988987 32.478348 55.941673 30.439976 53.419998 30.439999ZM 44.220001 33.440002L 53.419998 33.440002C 53.837193 33.43465 54.239143 33.596642 54.536037 33.889782C 54.832935 34.182922 55.000034 34.582771 55 35L 55 51.419998L 42.639999 51.419998L 42.639999 35C 42.650948 34.135208 43.355141 33.439934 44.220001 33.440002ZM 53.099998 39.32C 52.514366 38.735092 51.565636 38.735092 50.98 39.32L 47.52 42.799999L 46.32 41.580002C 45.728981 41.029282 44.80798 41.045532 44.236755 41.616756C 43.665531 42.187981 43.649284 43.108982 44.200001 43.700001L 46.459999 46C 47.045635 46.584908 47.994366 46.584908 48.580002 46L 53.099998 41.459999C 53.392208 41.180767 53.557503 40.794174 53.557503 40.389999C 53.557503 39.985825 53.392208 39.599236 53.100002 39.32Z"></path></g></g></g><g id="g-root-ic_hier_quobghfbu8su-fill" data-item-order="-2304" transform="translate(386, 320)"><g id="ic_hier_quobghfbu8su-fill" stroke="none" fill="#92bd39"><g><path d="M 19.939999 23.24C 19.939404 26.046028 22.21397 28.321081 25.02 28.321081C 27.826029 28.321081 30.100597 26.046028 30.099998 23.24C 30.100597 20.433971 27.826029 18.158918 25.02 18.158918C 22.21397 18.158918 19.939404 20.433971 19.939999 23.24M 10 10M 44.540001 37.739998L 38.540001 31.74C 42.051708 24.662979 39.480705 16.075249 32.657825 12.092203C 25.834949 8.109158 17.092781 10.092511 12.656695 16.6299C 8.22061 23.16729 9.607203 32.023731 15.829069 36.892479C 22.050936 41.761223 30.980963 40.97776 36.260002 35.099998L 42.52 41.360001C 42.90316 40.012871 43.594757 38.773476 44.540001 37.740002ZM 33.34 32.16C 30.439014 28.699438 25.680519 27.427839 21.439999 28.98C 19.607304 29.630157 17.993111 30.780184 16.780001 32.299999C 14.981646 30.294683 13.991081 27.693565 14 25C 14 18.92487 18.92487 14 25 14C 31.075132 14 36 18.92487 36 25C 36.005951 27.629377 35.061241 30.172287 33.339996 32.16ZM 44 44C 44 47.865993 47.13401 51 51 51C 54.865993 51 58 47.865993 58 44C 58 40.13401 54.865993 37 51 37C 47.13401 37 44 40.13401 44 44M 26 54C 26 56.209141 27.790861 58 30 58C 32.209137 58 34 56.209141 34 54C 34 51.790859 32.209137 50 30 50C 27.790861 50 26 51.790859 26 54M 10 10M 42.139999 45.560001L 35.360001 49.560001C 36.245617 50.609131 36.802162 51.896149 36.959999 53.259998L 43.700001 49.259998C 42.907387 48.160225 42.374054 46.895271 42.139999 45.559998Z"></path></g></g></g><g id="g-root-ic_targ_18gymf5fb943l-fill" data-item-order="-2304" transform="translate(386, 440)"><g id="ic_targ_18gymf5fb943l-fill" stroke="none" fill="#e0cb15"><g><path d="M 12 17.34C 11.999901 21.393841 15.28616 24.68018 19.34 24.68018C 23.393841 24.68018 26.680099 21.393841 26.68 17.34C 26.680099 13.28616 23.393841 9.999821 19.34 9.999821C 15.28616 9.999821 11.999901 13.28616 12 17.34M 19.880001 42.52C 19.875057 37.633167 21.895285 32.962746 25.459999 29.620001C 22.699205 27.225283 18.79533 26.660799 15.469269 28.175383C 12.143207 29.689968 10.006092 33.005329 10 36.66L 10 44.66L 14.219999 44.66L 15.34 58L 23.34 58L 23.700001 53.5C 21.226742 50.374489 19.880772 46.505707 19.880001 42.52ZM 51.139999 38.220001L 50.82 38.220001L 48 38C 48.62151 39.439838 48.941418 40.991749 48.939999 42.560001C 48.926842 47.512226 45.690681 51.878868 40.956535 53.332329C 36.222385 54.785786 31.093452 52.987358 28.303671 48.895679C 25.513889 44.804001 25.713369 39.372566 28.795776 35.496552C 31.878185 31.620541 37.125221 30.203186 41.739998 32L 41.459999 28.879999C 41.43008 28.620863 41.43008 28.35914 41.460003 28.1C 40.153988 27.760595 38.809372 27.592518 37.459999 27.6C 31.056835 27.72521 25.449959 31.928186 23.533825 38.039211C 21.617693 44.150238 23.820992 50.80212 29.006306 54.560936C 34.19162 58.319756 41.19886 58.344566 46.410664 54.622559C 51.622463 50.900555 53.87281 44.264439 51.999996 38.139999C 51.718113 38.20446 51.42894 38.231361 51.139999 38.220001ZM 41.700001 43.259998C 41.323887 45.311569 39.49295 46.771915 37.409111 46.682392C 35.325272 46.592873 33.626324 44.980877 33.427544 42.90461C 33.228767 40.828342 34.590996 38.923279 36.619999 38.439999L 39.599998 35.299999C 38.946304 35.132748 38.274731 35.045441 37.599998 35.040001C 33.46891 35.040001 30.119999 38.388908 30.119999 42.52C 30.119999 46.651089 33.46891 50 37.599998 50C 41.731087 50 45.079998 46.651089 45.079998 42.52C 45.076275 41.705318 44.948132 40.895985 44.700001 40.120003ZM 10 10M 56 27.799999L 52.919998 26.780001L 51.880001 23.68C 51.767162 23.347952 51.491653 23.097157 51.150494 23.015926C 50.809334 22.9347 50.450367 23.03443 50.200001 23.279999L 45.599998 27.860001C 45.178074 28.280367 44.96545 28.866911 45.02 29.459999L 45.279999 32.220001L 36.5 41.48C 35.915092 42.065636 35.915092 43.014366 36.5 43.600002C 36.771996 43.868 37.138161 44.018772 37.52 44.02C 37.937489 44.02005 38.336109 43.846107 38.620003 43.540001L 47.299999 34.379997L 50.139999 34.639999C 50.733089 34.69455 51.319633 34.481926 51.740002 34.059998L 56.32 29.48C 56.56905 29.241005 56.680332 28.892267 56.615749 28.55319C 56.551163 28.214113 56.319469 27.930704 56 27.799999Z"></path></g></g></g><g id="g-root-tx_bettercu_1d1ru2pfbu6f9-fill" data-item-order="0" transform="translate(458, 374)"><g id="tx_bettercu_1d1ru2pfbu6f9-fill" stroke="none" fill="#424736"><g><text style="font: 15px Roboto, sans-serif; white-space: pre;" font-size="15px" font-family="Roboto, sans-serif"><tspan x="12" y="28" dominant-baseline="ideographic">Better customer engagement and </tspan><tspan x="12" y="46" dominant-baseline="ideographic">satisfaction</tspan></text></g></g></g><g id="g-root-tx_goalalig_8x5n9dfb95vz-fill" data-item-order="0" transform="translate(458, 434)"><g id="tx_goalalig_8x5n9dfb95vz-fill" stroke="none" fill="#e0cb15"><g><text style="font: bold 20px Roboto, sans-serif; white-space: pre;" font-weight="bold" font-size="20px" font-family="Roboto, sans-serif"><tspan x="12" y="34" dominant-baseline="ideographic">Goal Alignment</tspan></text></g></g></g><g id="g-root-tx_crmsyste_1q7m5ttfb94w8-fill" data-item-order="0" transform="translate(458, 470)"><g id="tx_crmsyste_1q7m5ttfb94w8-fill" stroke="none" fill="#46432d"><g><text style="font: 15px Roboto, sans-serif; white-space: pre;" font-size="15px" font-family="Roboto, sans-serif"><tspan x="12" y="28" dominant-baseline="ideographic">CRM systems aligned with </tspan><tspan x="12" y="46" dominant-baseline="ideographic">business objectives</tspan></text></g></g></g><g id="g-root-tx_improved_1usfdhdfbu77w-fill" data-item-order="0" transform="translate(458, 314)"><g id="tx_improved_1usfdhdfbu77w-fill" stroke="none" fill="#92bd39"><g><text style="font: bold 20px Roboto, sans-serif; white-space: pre;" font-weight="bold" font-size="20px" font-family="Roboto, sans-serif"><tspan x="12" y="34" dominant-baseline="ideographic">Improved Customer </tspan><tspan x="12" y="58" dominant-baseline="ideographic">Relationships</tspan></text></g></g></g><g id="g-root-tx_improved_1upb01tfbu6te-fill" data-item-order="0" transform="translate(458, 254)"><g id="tx_improved_1upb01tfbu6te-fill" stroke="none" fill="#374840"><g><text style="font: 15px Roboto, sans-serif; white-space: pre;" font-size="15px" font-family="Roboto, sans-serif"><tspan x="12" y="28" dominant-baseline="ideographic">Improved operational workflows </tspan><tspan x="12" y="46" dominant-baseline="ideographic">through customization</tspan></text></g></g></g><g id="g-root-tx_enhanced_deuhhdfbu7t5-fill" data-item-order="0" transform="translate(458, 218)"><g id="tx_enhanced_deuhhdfbu7t5-fill" stroke="none" fill="#3cc583"><g><text style="font: bold 20px Roboto, sans-serif; white-space: pre;" font-weight="bold" font-size="20px" font-family="Roboto, sans-serif"><tspan x="12" y="34" dominant-baseline="ideographic">Enhanced Efficiency</tspan></text></g></g></g><g id="g-root-tx_processi_dhyy2pfb95aa-fill" data-item-order="0" transform="translate(458, 530)"><g id="tx_processi_dhyy2pfb95aa-fill" stroke="none" fill="#de8431"><g><text style="font: bold 20px Roboto, sans-serif; white-space: pre;" font-weight="bold" font-size="20px" font-family="Roboto, sans-serif"><tspan x="12" y="34" dominant-baseline="ideographic">Process Integration</tspan></text></g></g></g><g id="g-root-tx_crmsyste_hrjm69fbu6mf-fill" data-item-order="0" transform="translate(458, 158)"><g id="tx_crmsyste_hrjm69fbu6mf-fill" stroke="none" fill="#32444a"><g><text style="font: 15px Roboto, sans-serif; white-space: pre;" font-size="15px" font-family="Roboto, sans-serif"><tspan x="12" y="28" dominant-baseline="ideographic">CRM systems designed to fit </tspan><tspan x="12" y="46" dominant-baseline="ideographic">specific business needs</tspan></text></g></g></g><g id="g-root-tx_overalli_1q7m5ttfbaia6-fill" data-item-order="0" transform="translate(458, 662)"><g id="tx_overalli_1q7m5ttfbaia6-fill" stroke="none" fill="#543a3a"><g><text style="font: 15px Roboto, sans-serif; white-space: pre;" font-size="15px" font-family="Roboto, sans-serif"><tspan x="12" y="28" dominant-baseline="ideographic">Overall improvement in business </tspan><tspan x="12" y="46" dominant-baseline="ideographic">outcomes</tspan></text></g></g></g><g id="g-root-tx_tailored_vcd8u9fbstmu-fill" data-item-order="0" transform="translate(458, 122)"><g id="tx_tailored_vcd8u9fbstmu-fill" stroke="none" fill="#1eabda"><g><text style="font: bold 20px Roboto, sans-serif; white-space: pre;" font-weight="bold" font-size="20px" font-family="Roboto, sans-serif"><tspan x="12" y="34" dominant-baseline="ideographic">Tailored Design</tspan></text></g></g></g><g id="g-root-tx_benefits_18ntr7lfbss1x-fill" data-item-order="0" transform="translate(146, 38)"><g id="tx_benefits_18ntr7lfbss1x-fill" stroke="none" fill="#484848"><g><text style="font: 30px Roboto, sans-serif; white-space: pre;" font-size="30px" font-family="Roboto, sans-serif"><tspan x="13.99" y="46" dominant-baseline="ideographic">Benefits of Custom CRM Solutions</tspan></text></g></g></g><g id="g-root-tx_betterre_dcz5dtfbaj9h-fill" data-item-order="0" transform="translate(458, 626)"><g id="tx_betterre_dcz5dtfbaj9h-fill" stroke="none" fill="#e55753"><g><text style="font: bold 20px Roboto, sans-serif; white-space: pre;" font-weight="bold" font-size="20px" font-family="Roboto, sans-serif"><tspan x="12" y="34" dominant-baseline="ideographic">Better Results</tspan></text></g></g></g><g id="g-root-tx_seamless_1qclyipfb94az-fill" data-item-order="0" transform="translate(458, 566)"><g id="tx_seamless_1qclyipfb94az-fill" stroke="none" fill="#4c4034"><g><text style="font: 15px Roboto, sans-serif; white-space: pre;" font-size="15px" font-family="Roboto, sans-serif"><tspan x="12" y="28" dominant-baseline="ideographic">Seamless integration with existing </tspan><tspan x="12" y="46" dominant-baseline="ideographic">business processes</tspan></text></g></g></g><g id="g-root-cp_1_g-1_1hhlc75fbsrgl-stroke" data-item-order="-500678" transform="translate(83.9429931640625, 158)"><g id="cp_1_g-1_1hhlc75fbsrgl-stroke" fill="none" stroke-linecap="round" stroke-linejoin="round" stroke-miterlimit="4" stroke="#ffffff" stroke-width="2"><g><path d="M 215.3488 94L 10 94C 28.9676 77.3931 53.7714 66.9398 84.4115 62.64L 84.4115 24C 84.4115 19.8933 85.622 16.5333 88.0429 13.92C 90.4638 11.3067 93.5764 10 97.3808 10L 134.2136 10C 137.672 10 140.6117 11.3067 143.0327 13.92C 145.4536 16.5333 146.6641 19.8933 146.6641 24L 146.6641 63.76C 170.5276 67.8667 190.4138 75.7067 206.3228 87.28C 209.4817 89.4565 212.4904 91.6965 215.3488 94Z"></path></g></g></g><g id="g-root-cp_2_g-2_18lyby9fbss9b-stroke" data-item-order="-500674" transform="translate(47.87199401855469, 326)"><g id="cp_2_g-2_18lyby9fbss9b-stroke" fill="none" stroke-linecap="round" stroke-linejoin="round" stroke-miterlimit="4" stroke="#ffffff" stroke-width="2"><g><path d="M 266.1706 94L 52.4877 94C 40.2869 85.6356 30.6153 75.7423 23.4729 64.32C 14.7822 49.5263 10.2912 31.4196 10 10L 94.2532 10C 94.9883 17.0582 97.5064 23.2182 101.8074 28.48C 106.9951 34.4533 115.4683 39.8667 127.2272 44.72C 138.986 49.2 154.895 54.24 174.9541 59.84C 205.3887 66.56 230.1168 74.5867 249.1384 83.92C 255.3731 86.9792 261.0505 90.3392 266.1706 94Z"></path></g></g></g><g id="g-root-cp_3_g-3_1464tttfbst1l-stroke" data-item-order="-500670" transform="translate(47.85600280761719, 242)"><g id="cp_3_g-3_1464tttfbst1l-stroke" fill="none" stroke-linecap="round" stroke-linejoin="round" stroke-miterlimit="4" stroke="#ffffff" stroke-width="2"><g><path d="M 213.2087 93.245C 213.7505 93.5375 214.3446 93.7873 214.973 94C 217.5531 94.8732 220.7126 95.12 223.2157 95.12L 281.8369 95.12C 283.6339 95.12 285.2581 94.7467 286.7093 94C 287.7717 93.4534 288.7407 92.7067 289.6177 91.76C 291.6928 89.1467 292.7304 86.3466 292.7304 83.36C 292.3845 69.92 287.8885 56.1067 279.2423 41.92C 272.5551 30.1895 263.2862 19.5495 251.4356 10L 46.0868 10C 43.6449 12.138 41.2997 14.378 39.0512 16.72C 19.6837 37.2533 10 62.2667 10 91.76C 10 92.5107 10.0051 93.2573 10.0152 94L 94.2683 94C 94.1168 92.5448 94.041 91.0515 94.041 89.52C 94.041 75.7067 99.0558 65.44 109.0853 58.72C 119.1149 52 132.603 48.64 149.5495 48.64C 165.4585 48.64 178.6007 52.3733 188.9761 59.84C 199.3515 66.9333 205.4039 75.3333 207.1331 85.04C 207.6996 88.2197 210.4419 91.7517 213.2087 93.245Z"></path></g></g></g><g id="g-root-cp_4_g-4_zqbbpdfbsttv-stroke" data-item-order="-500666" transform="translate(90.3590087890625, 410)"><g id="cp_4_g-4_zqbbpdfbsttv-stroke" fill="none" stroke-linecap="round" stroke-linejoin="round" stroke-miterlimit="4" stroke="#ffffff" stroke-width="2"><g><path d="M 223.6829 10C 234.1837 17.508 242.3402 26.2814 248.1525 36.32C 257.1445 50.88 261.6405 69.36 261.6405 91.76C 261.6405 92.5096 261.6345 93.2563 261.6225 94L 177.5678 94C 177.2257 85.0648 174.1237 77.7848 168.2617 72.16C 162.3823 66.1867 152.8715 60.7733 139.7292 55.92C 126.9329 51.0667 109.6405 45.84 87.8521 40.24C 61.9135 34.2667 39.9522 26.6133 21.9681 17.28C 17.7398 14.9978 13.7504 12.5711 10 10L 223.6829 10Z"></path></g></g></g><g id="g-root-cp_5_g-5_qvasjlfbsrgt-stroke" data-item-order="-500662" transform="translate(38, 489.52001953125)"><g id="cp_5_g-5_qvasjlfbsrgt-stroke" fill="none" stroke-linecap="round" stroke-linejoin="round" stroke-miterlimit="4" stroke="#ffffff" stroke-width="2"><g><path d="M 12.6221 14.48C 12.7786 14.2908 12.9422 14.1042 13.1128 13.92C 15.5337 11.3067 18.3005 10 21.4131 10L 76.9217 10C 81.4177 10 86.0576 11.1039 88.4786 13.3438C 88.9603 13.7153 89.4182 14.0903 89.853 14.48C 91.6029 16.0486 92.9792 17.8569 94.041 20.6405C 96.4619 26.9872 100.2662 33.1471 105.4539 39.1205C 110.9875 45.0938 118.4232 50.1338 127.7611 54.2405C 137.099 57.9738 148.6849 59.8405 162.5188 59.8405C 184.9989 59.8405 201.7725 55.9205 212.8396 48.0805C 224.2526 40.2405 229.9591 29.6005 229.9591 16.1605C 229.9591 15.5941 229.9485 15.0341 229.9273 14.4805L 313.982 14.4805C 313.6468 35.222 308.638 53.702 298.9556 69.9205C 292.2863 80.8437 283.7819 90.3636 273.4423 98.4805L 49.4052 98.4805C 39.0416 90.0332 30.7484 80.5132 24.5256 69.9205C 15.5336 54.6138 10.6917 38.5605 10 21.7605C 10 19.0193 10.8741 16.5922 12.6221 14.48Z"></path></g></g></g><g id="g-root-cp_6_g-6_mfhaf5fbss93-stroke" data-item-order="-500658" transform="translate(77.40499877929688, 578)"><g id="cp_6_g-6_mfhaf5fbss93-stroke" fill="none" stroke-linecap="round" stroke-linejoin="round" stroke-miterlimit="4" stroke="#ffffff" stroke-width="2"><g><path d="M 94.5811 90.08C 97.0021 92.6934 100.1147 94 103.919 94L 140.7518 94C 144.2103 94 147.15 92.6934 149.5709 90.08C 151.9918 87.4667 153.2023 84.1067 153.2023 80L 153.2023 41.36C 177.7575 38 199.0271 31.28 217.0112 21.2C 223.1523 17.8229 228.8276 14.0895 234.037 10L 10 10C 14.6119 13.7591 19.6339 17.3058 25.0658 20.64C 42.704 31.0933 64.6653 38 90.9497 41.36L 90.9497 80C 90.9497 84.1067 92.1602 87.4667 94.5811 90.08Z"></path></g></g></g><g id="g-root-cp_1_text-1_hznsapfbst1d-stroke" data-item-order="-500649" transform="translate(446, 122)"><g id="cp_1_text-1_hznsapfbst1d-stroke" fill="none" stroke-linecap="round" stroke-linejoin="round" stroke-miterlimit="4" stroke="#1eabda" stroke-width="2"><g><path d="M 10 10L 10 82"></path></g></g></g><g id="g-root-cp_2_text-2_940s1tfbstu3-stroke" data-item-order="-500633" transform="translate(446, 218)"><g id="cp_2_text-2_940s1tfbstu3-stroke" fill="none" stroke-linecap="round" stroke-linejoin="round" stroke-miterlimit="4" stroke="#3cc583" stroke-width="2"><g><path d="M 10 10L 10 82"></path></g></g></g><g id="g-root-cp_3_text-3_4otr0hfbsrgl-stroke" data-item-order="-500619" transform="translate(446, 314)"><g id="cp_3_text-3_4otr0hfbsrgl-stroke" fill="none" stroke-linecap="round" stroke-linejoin="round" stroke-miterlimit="4" stroke="#92bd39" stroke-width="2"><g><path d="M 10 10L 10 106"></path></g></g></g><g id="g-root-cp_4_text-4_1qeham9fbssuf-stroke" data-item-order="-500605" transform="translate(446, 434)"><g id="cp_4_text-4_1qeham9fbssuf-stroke" fill="none" stroke-linecap="round" stroke-linejoin="round" stroke-miterlimit="4" stroke="#e0cb15" stroke-width="2"><g><path d="M 10 10L 10 82"></path></g></g></g><g id="g-root-cp_5_text-5_1lynshtfbstmp-stroke" data-item-order="-500591" transform="translate(446, 530)"><g id="cp_5_text-5_1lynshtfbstmp-stroke" fill="none" stroke-linecap="round" stroke-linejoin="round" stroke-miterlimit="4" stroke="#de8431" stroke-width="2"><g><path d="M 10 10L 10 82"></path></g></g></g><g id="g-root-cp_6_text-6_1d3n9c1fbsr9n-stroke" data-item-order="-500577" transform="translate(446, 626)"><g id="cp_6_text-6_1d3n9c1fbsr9n-stroke" fill="none" stroke-linecap="round" stroke-linejoin="round" stroke-miterlimit="4" stroke="#e55753" stroke-width="2"><g><path d="M 10 10L 10 82"></path></g></g></g><g id="g-root-ic_incr_18gc5c1fbaknb-stroke" data-item-order="-2304" transform="translate(386, 632)"></g><g id="g-root-ic_floa_dbq41tfbu7eo-stroke" data-item-order="-2304" transform="translate(386, 128)"></g><g id="g-root-ic_chec_1hduhohfbu8eb-stroke" data-item-order="-2304" transform="translate(386, 224)"></g><g id="g-root-ic_sync_18lyf41fb93ic-stroke" data-item-order="-2304" transform="translate(386, 536)"></g><g id="g-root-ic_hier_quobghfbu8su-stroke" data-item-order="-2304" transform="translate(386, 320)"></g><g id="g-root-ic_targ_18gymf5fb943l-stroke" data-item-order="-2304" transform="translate(386, 440)"></g><g id="g-root-tx_bettercu_1d1ru2pfbu6f9-stroke" data-item-order="0" transform="translate(458, 374)"></g><g id="g-root-tx_goalalig_8x5n9dfb95vz-stroke" data-item-order="0" transform="translate(458, 434)"></g><g id="g-root-tx_crmsyste_1q7m5ttfb94w8-stroke" data-item-order="0" transform="translate(458, 470)"></g><g id="g-root-tx_improved_1usfdhdfbu77w-stroke" data-item-order="0" transform="translate(458, 314)"></g><g id="g-root-tx_improved_1upb01tfbu6te-stroke" data-item-order="0" transform="translate(458, 254)"></g><g id="g-root-tx_enhanced_deuhhdfbu7t5-stroke" data-item-order="0" transform="translate(458, 218)"></g><g id="g-root-tx_processi_dhyy2pfb95aa-stroke" data-item-order="0" transform="translate(458, 530)"></g><g id="g-root-tx_crmsyste_hrjm69fbu6mf-stroke" data-item-order="0" transform="translate(458, 158)"></g><g id="g-root-tx_overalli_1q7m5ttfbaia6-stroke" data-item-order="0" transform="translate(458, 662)"></g><g id="g-root-tx_tailored_vcd8u9fbstmu-stroke" data-item-order="0" transform="translate(458, 122)"></g><g id="g-root-tx_benefits_18ntr7lfbss1x-stroke" data-item-order="0" transform="translate(146, 38)"></g><g id="g-root-tx_betterre_dcz5dtfbaj9h-stroke" data-item-order="0" transform="translate(458, 626)"></g><g id="g-root-tx_seamless_1qclyipfb94az-stroke" data-item-order="0" transform="translate(458, 566)"></g></g></g></svg>