<?xml version="1.0" encoding="utf-8" standalone="yes"?>
<!DOCTYPE svg PUBLIC "-//W3C//DTD SVG 1.1//EN" "http://www.w3.org/Graphics/SVG/1.1/DTD/svg11.dtd">
<svg width="792" height="780" viewBox="0 0 792 780" style="fill:none;stroke:none;fill-rule:evenodd;clip-rule:evenodd;stroke-linecap:round;stroke-linejoin:round;stroke-miterlimit:1.5;" version="1.1" xmlns="http://www.w3.org/2000/svg" xmlns:xlink="http://www.w3.org/1999/xlink"><style class="text-font-style fontImports" data-font-family="Roboto">@import url('https://fonts.googleapis.com/css2?family=Roboto:wght@400;700&amp;display=block');</style><g id="items" style="isolation: isolate"><g id="blend" style="mix-blend-mode: normal"><g id="g-root-cp_resolution_g-resolution_8x5gypfbg5cd-fill" data-item-order="-508886" transform="translate(386, 518)"><g id="cp_resolution_g-resolution_8x5gypfbg5cd-fill" stroke="none" fill="#44e095"><g><path d="M 10 94L 262 94L 262 106L 298 58L 262 10L 262 22L 154.0002 22C 139.4192 41.4413 121.0051 57.7901 99.8173 69.9897C 72.4963 85.7208 41.5238 94.0001 10 94Z"></path></g></g></g><g id="g-root-cp_3_g-3_4hbyu9fbg64n-fill" data-item-order="-508880" transform="translate(206, 332)"><g id="cp_3_g-3_4hbyu9fbg64n-fill" stroke="none" fill="#92bd39"><g><path d="M 45.9999 208C 41.6952 202.2604 37.7246 196.2513 34.1154 190C 18.3171 162.6366 10 131.5966 10 100C 10 68.4034 18.3171 37.3635 34.1154 10L 96.392 45.9554C 86.9051 62.387 81.9107 81.0264 81.9107 100C 81.9107 118.9737 86.9051 137.613 96.3919 154.0447C 105.8787 170.4763 119.5237 184.1213 135.9554 193.6081C 151.1171 202.3617 168.1584 207.2905 185.6077 208L 45.9999 208Z"></path></g></g></g><g id="g-root-cp_2_g-2_1q7lzj5fbg4cp-fill" data-item-order="-508874" transform="translate(230.08599853515625, 242)"><g id="cp_2_g-2_1q7lzj5fbg4cp-fill" stroke="none" fill="#e0cb15"><g><path d="M 10 100.051C 25.7894 72.6823 48.5047 49.9521 75.863 34.1449C 103.2213 18.3376 134.2586 10.0103 165.8551 10C 197.4518 9.9897 228.4944 18.2967 255.863 34.086C 283.2316 49.8754 305.9619 72.5908 321.7691 99.9491L 259.5044 135.9248C 250.0122 119.4962 236.3628 105.8557 219.928 96.3743C 203.4933 86.8928 184.8523 81.9045 165.8787 81.9107C 146.905 81.9169 128.2673 86.9174 111.8388 96.4096C 95.4102 105.9018 81.7697 119.5512 72.2883 135.986L 10 100.051Z"></path></g></g></g><g id="g-root-cp_1_g-1_1lrshepfbg54z-fill" data-item-order="-508868" transform="translate(385.78900146484375, 332.18310546875)"><g id="cp_1_g-1_1lrshepfbg54z-fill" stroke="none" fill="#de8431"><g><path d="M 166.2015 10C 181.9677 37.382 190.2483 68.4317 190.2113 100.0283C 190.1742 131.6249 181.8206 162.655 165.9902 189.9999C 150.1598 217.3448 127.4103 240.0409 100.0283 255.8071C 72.6463 271.5733 41.5966 279.8539 10 279.8168L 10.0844 207.9062C 29.0581 207.9284 47.7033 202.9559 64.1461 193.4884C 80.5889 184.0209 94.2498 170.392 103.7559 153.9715C 113.262 137.551 118.2783 118.9175 118.3006 99.9439C 118.3229 80.9702 113.3503 62.325 103.8828 45.8822L 166.2015 10Z"></path></g></g></g><g id="g-root-cp_problem_g-problem_18gbz1dfbg6px-fill" data-item-order="-508862" transform="translate(133, 530)"><g id="cp_problem_g-problem_18gbz1dfbg6px-fill" stroke="none" fill="#fd6a65"><g><path d="M 10 10L 263 10L 263 82L 10 82L 10 10Z"></path></g></g></g><g id="g-root-tx_reducela_8x5gypfbq0as-fill" data-item-order="0" transform="translate(50, 318)"><g id="tx_reducela_8x5gypfbq0as-fill" stroke="none" fill="#92bd39"><g><text style="font: bold 20px Roboto, sans-serif; white-space: pre;" font-weight="bold" font-size="20px" font-family="Roboto, sans-serif"><tspan x="16.34" y="34" dominant-baseline="ideographic">Reduce Labor </tspan><tspan x="88.3" y="58" dominant-baseline="ideographic">Costs</tspan></text></g></g></g><g id="g-root-tx_streamli_i0wnc1fbolxc-fill" data-item-order="0" transform="translate(590, 318)"><g id="tx_streamli_i0wnc1fbolxc-fill" stroke="none" fill="#de8431"><g><text style="font: bold 20px Roboto, sans-serif; white-space: pre;" font-weight="bold" font-size="20px" font-family="Roboto, sans-serif"><tspan x="12" y="34" dominant-baseline="ideographic">Streamline </tspan><tspan x="12" y="58" dominant-baseline="ideographic">Processes</tspan></text></g></g></g><g id="g-root-ic_up_qp1yjlfbkd8i-fill" data-item-order="0" transform="translate(362, 254)"></g><g id="g-root-tx_allocate_qnt0ddfbq13f-fill" data-item-order="0" transform="translate(320, 158)"><g id="tx_allocate_qnt0ddfbq13f-fill" stroke="none" fill="#46432d"><g><text style="font: 15px Roboto, sans-serif; white-space: pre;" font-size="15px" font-family="Roboto, sans-serif"><tspan x="12.04" y="31" dominant-baseline="ideographic">Allocate resources </tspan><tspan x="25.6" y="49" dominant-baseline="ideographic">effectively and </tspan><tspan x="42.06" y="67" dominant-baseline="ideographic">efficiently</tspan></text></g></g></g><g id="g-root-tx_lowerexp_1lrshepfbpzbh-fill" data-item-order="0" transform="translate(38, 378)"><g id="tx_lowerexp_1lrshepfbpzbh-fill" stroke="none" fill="#424736"><g><text style="font: 15px Roboto, sans-serif; white-space: pre;" font-size="15px" font-family="Roboto, sans-serif"><tspan x="23.28" y="28" dominant-baseline="ideographic">Lower expenses on </tspan><tspan x="64.73" y="46" dominant-baseline="ideographic">manual labor</tspan></text></g></g></g><g id="g-root-tx_reducema_1ulk2e9fbpzih-fill" data-item-order="0" transform="translate(590, 378)"><g id="tx_reducema_1ulk2e9fbpzih-fill" stroke="none" fill="#4c4034"><g><text style="font: 15px Roboto, sans-serif; white-space: pre;" font-size="15px" font-family="Roboto, sans-serif"><tspan x="12" y="28" dominant-baseline="ideographic">Reduce manual </tspan><tspan x="12" y="46" dominant-baseline="ideographic">intervention needed</tspan></text></g></g></g><g id="g-root-ic_remo_1hgyrz5fbhipt-fill" data-item-order="0" transform="translate(218, 410)"></g><g id="g-root-tx_implemen_zqb8khfbokjx-fill" data-item-order="0" transform="translate(327, 398)"><g id="tx_implemen_zqb8khfbokjx-fill" stroke="none" fill="#484848"><g><text style="font: bold 20px Roboto, sans-serif; white-space: pre;" font-weight="bold" font-size="20px" font-family="Roboto, sans-serif"><tspan x="21.27" y="34" dominant-baseline="ideographic">Implement </tspan><tspan x="17.12" y="58" dominant-baseline="ideographic">Automation</tspan></text></g></g></g><g id="g-root-ic_2_qtfa5dfblt6r-fill" data-item-order="0" transform="translate(507, 410)"></g><g id="g-root-tx_optimize_1cuwizlfbpypu-fill" data-item-order="0" transform="translate(332, 98)"><g id="tx_optimize_1cuwizlfbpypu-fill" stroke="none" fill="#e0cb15"><g><text style="font: bold 20px Roboto, sans-serif; white-space: pre;" font-weight="bold" font-size="20px" font-family="Roboto, sans-serif"><tspan x="23.73" y="34" dominant-baseline="ideographic">Optimize </tspan><tspan x="16.49" y="58" dominant-baseline="ideographic">Resources</tspan></text></g></g></g><g id="g-root-tx_streamli_8z0w81fbg4cv-fill" data-item-order="0" transform="translate(104, 38)"><g id="tx_streamli_8z0w81fbg4cv-fill" stroke="none" fill="#484848"><g><text style="font: bold 30px Roboto, sans-serif; white-space: pre;" font-weight="bold" font-size="30px" font-family="Roboto, sans-serif"><tspan x="17.05" y="46" dominant-baseline="ideographic">Streamlining Processes with Automation</tspan></text></g></g></g><g id="g-root-ic_yoyo_1qcls81fbn764-fill" data-item-order="0" transform="translate(238, 542)"></g><g id="g-root-ic_1_1ltnwo1fbg45c-fill" data-item-order="0" transform="translate(543, 542)"></g><g id="g-root-tx_reliable_deuechfbpyiv-fill" data-item-order="0" transform="translate(500, 686)"><g id="tx_reliable_deuechfbpyiv-fill" stroke="none" fill="#374840"><g><text style="font: 15px Roboto, sans-serif; white-space: pre;" font-size="15px" font-family="Roboto, sans-serif"><tspan x="14.14" y="28" dominant-baseline="ideographic">Reliable, effective, </tspan><tspan x="20.35" y="46" dominant-baseline="ideographic">and faster tasks</tspan></text></g></g></g><g id="g-root-tx_automate_v5hxr5fbpzbi-fill" data-item-order="0" transform="translate(512, 626)"><g id="tx_automate_v5hxr5fbpzbi-fill" stroke="none" fill="#3cc583"><g><text style="font: bold 20px Roboto, sans-serif; white-space: pre;" font-weight="bold" font-size="20px" font-family="Roboto, sans-serif"><tspan x="11.92" y="34" dominant-baseline="ideographic">Automated </tspan><tspan x="12.31" y="58" dominant-baseline="ideographic">Operations</tspan></text></g></g></g><g id="g-root-tx_errorpro_1d30p41fbol53-fill" data-item-order="0" transform="translate(189, 686)"><g id="tx_errorpro_1d30p41fbol53-fill" stroke="none" fill="#543a3a"><g><text style="font: 15px Roboto, sans-serif; white-space: pre;" font-size="15px" font-family="Roboto, sans-serif"><tspan x="11.99" y="28" dominant-baseline="ideographic">Error-prone and slow </tspan><tspan x="62.93" y="46" dominant-baseline="ideographic">tasks</tspan></text></g></g></g><g id="g-root-tx_manualin_4o76shfbolc6-fill" data-item-order="0" transform="translate(201, 626)"><g id="tx_manualin_4o76shfbolc6-fill" stroke="none" fill="#e55753"><g><text style="font: bold 20px Roboto, sans-serif; white-space: pre;" font-weight="bold" font-size="20px" font-family="Roboto, sans-serif"><tspan x="36.69" y="34" dominant-baseline="ideographic">Manual </tspan><tspan x="15.65" y="58" dominant-baseline="ideographic">Intervention</tspan></text></g></g></g><g id="g-root-cp_resolution_g-resolution_8x5gypfbg5cd-stroke" data-item-order="-508886" transform="translate(386, 518)"><g id="cp_resolution_g-resolution_8x5gypfbg5cd-stroke" fill="none" stroke-linecap="round" stroke-linejoin="round" stroke-miterlimit="4" stroke="#ffffff" stroke-width="2"><g><path d="M 10 94L 262 94L 262 106L 298 58L 262 10L 262 22L 154.0002 22"></path></g></g></g><g id="g-root-cp_3_g-3_4hbyu9fbg64n-stroke" data-item-order="-508880" transform="translate(206, 332)"><g id="cp_3_g-3_4hbyu9fbg64n-stroke" fill="none" stroke-linecap="round" stroke-linejoin="round" stroke-miterlimit="4" stroke="#ffffff" stroke-width="2"><g><path d="M 45.9999 208C 41.6952 202.2604 37.7246 196.2513 34.1154 190C 18.3171 162.6366 10 131.5966 10 100C 10 68.4034 18.3171 37.3635 34.1154 10M 96.392 45.9554C 86.9051 62.387 81.9107 81.0264 81.9107 100C 81.9107 118.9737 86.9051 137.613 96.3919 154.0447C 105.8787 170.4763 119.5237 184.1213 135.9554 193.6081C 151.1171 202.3617 168.1584 207.2905 185.6077 208"></path></g></g></g><g id="g-root-cp_2_g-2_1q7lzj5fbg4cp-stroke" data-item-order="-508874" transform="translate(230.08599853515625, 242)"><g id="cp_2_g-2_1q7lzj5fbg4cp-stroke" fill="none" stroke-linecap="round" stroke-linejoin="round" stroke-miterlimit="4" stroke="#ffffff" stroke-width="2"><g><path d="M 321.7691 99.9491C 305.9619 72.5908 283.2316 49.8754 255.863 34.086C 228.4944 18.2967 197.4518 9.9897 165.8551 10C 134.2586 10.0103 103.2213 18.3376 75.863 34.1449C 48.5047 49.9521 25.7894 72.6823 10 100.051L 72.2883 135.986C 81.7697 119.5512 95.4102 105.9018 111.8388 96.4096C 128.2673 86.9174 146.905 81.9169 165.8787 81.9107C 184.8523 81.9045 203.4933 86.8928 219.928 96.3743C 236.3628 105.8557 250.0122 119.4962 259.5044 135.9248"></path></g></g></g><g id="g-root-cp_1_g-1_1lrshepfbg54z-stroke" data-item-order="-508868" transform="translate(385.78900146484375, 332.18310546875)"><g id="cp_1_g-1_1lrshepfbg54z-stroke" fill="none" stroke-linecap="round" stroke-linejoin="round" stroke-miterlimit="4" stroke="#ffffff" stroke-width="2"><g><path d="M 10 279.8168C 41.5966 279.8539 72.6463 271.5733 100.0283 255.8071C 127.4103 240.0409 150.1598 217.3448 165.9902 189.9999C 181.8206 162.655 190.1742 131.6249 190.2113 100.0283C 190.2483 68.4317 181.9677 37.382 166.2015 10L 103.8828 45.8822C 113.3503 62.325 118.3229 80.9702 118.3006 99.9439C 118.2783 118.9175 113.262 137.551 103.7559 153.9715C 94.2498 170.392 80.5889 184.0209 64.1461 193.4884C 47.7033 202.9559 29.0581 207.9284 10.0844 207.9062"></path></g></g></g><g id="g-root-cp_problem_g-problem_18gbz1dfbg6px-stroke" data-item-order="-508862" transform="translate(133, 530)"><g id="cp_problem_g-problem_18gbz1dfbg6px-stroke" fill="none" stroke-linecap="round" stroke-linejoin="round" stroke-miterlimit="4" stroke="#ffffff" stroke-width="2"><g><path d="M 10 10L 263 10L 263 82L 10 82L 10 10Z"></path></g></g></g><g id="g-root-tx_reducela_8x5gypfbq0as-stroke" data-item-order="0" transform="translate(50, 318)"></g><g id="g-root-tx_streamli_i0wnc1fbolxc-stroke" data-item-order="0" transform="translate(590, 318)"></g><g id="g-root-ic_up_qp1yjlfbkd8i-stroke" data-item-order="0" transform="translate(362, 254)"><g id="ic_up_qp1yjlfbkd8i-stroke" fill="none" stroke-linecap="round" stroke-linejoin="round" stroke-miterlimit="4" stroke="#ffffff" stroke-width="2"><g><path d="M 11.5 56.5C 14.48672 56.5 17.473461 56.5 20.46018 53.5C 23.446899 56.5 26.43362 56.5 27.23008 56.5C 28.026541 56.5 31.013201 56.5 34 53.5C 36.986801 56.5 39.9734 56.5 40.77 56.5C 41.566399 56.5 44.553001 56.5 47.539799 53.5C 50.5266 56.5 53.513199 56.5 56.5 56.5M 50.299999 18.79162C 53.9716 18.79162 56.9482 17.15934 56.9482 15.145821C 56.9482 13.13228 53.9716 11.5 50.299999 11.5C 46.628201 11.5 43.651798 13.13228 43.651798 15.145821C 43.651798 17.15934 46.628201 18.79162 50.299999 18.79162ZM 43.651798 15.1457L 43.651798 25.010841C 43.651798 26.940981 46.654202 28.65666 50.299999 28.65666C 53.945801 28.65666 56.9482 26.940981 56.9482 25.010841L 56.9482 15.1457M 14.59252 48.799801C 14.59252 48.137199 14.37164 47.474602 13.70896 46.811798L 12.38358 45.486401C 11.500006 44.823799 11.279104 43.498402 11.720892 42.614799C 12.16268 41.510399 13.04626 41.0686 14.15074 41.0686L 15.9179 41.0686C 16.58058 41.0686 17.46414 40.847801 17.905941 40.405998C 18.347721 39.964199 18.568619 39.312401 18.568619 38.417801L 18.568619 36.650803C 18.568619 35.5462 19.2313 34.441799 20.11488 34.220802C 21.219341 33.779198 22.32382 34 22.9865 34.883598L 24.31188 36.209C 24.75366 36.650803 25.41634 37.092598 26.299919 37.092598C 27.183479 37.092598 27.625259 36.871597 28.287939 36.209L 29.613319 34.883598C 30.275999 34 31.6014 33.779198 32.485001 34.220802C 33.589401 34.662598 34.0312 35.5462 34.0312 36.650803L 34.0312 38.417801C 34.0312 39.080601 34.252197 39.964199 34.693802 40.405998C 35.135597 40.847801 36.019199 41.2896 36.681999 41.0686L 38.448997 41.0686C 39.5536 41.0686 40.658001 41.731201 40.878998 42.614799C 41.320801 43.719398 41.0998 44.823799 40.216202 45.486401L 38.8908 46.811798C 38.448997 47.253601 38.007202 47.916401 38.007202 48.799801M 21.44018 48.799801C 21.44018 46.148998 23.649139 43.7192 26.52076 43.7192C 29.17148 43.7192 31.3804 45.928001 31.3804 48.799801M 50.299999 33.399799L 50.299999 47.999802M 10 10M 46.299999 37.400002L 50.299999 33.400002L 54.299999 37.400002M 56.9482 20.039661C 56.9482 22.095821 53.971802 23.76268 50.299999 23.76268C 46.628201 23.76268 43.651798 22.095821 43.651798 20.039661"></path></g></g></g><g id="g-root-tx_allocate_qnt0ddfbq13f-stroke" data-item-order="0" transform="translate(320, 158)"></g><g id="g-root-tx_lowerexp_1lrshepfbpzbh-stroke" data-item-order="0" transform="translate(38, 378)"></g><g id="g-root-tx_reducema_1ulk2e9fbpzih-stroke" data-item-order="0" transform="translate(590, 378)"></g><g id="g-root-ic_remo_1hgyrz5fbhipt-stroke" data-item-order="0" transform="translate(218, 410)"><g id="ic_remo_1hgyrz5fbhipt-stroke" fill="none" stroke-linecap="round" stroke-linejoin="round" stroke-miterlimit="4" stroke="#ffffff" stroke-width="2"><g><path d="M 15.210159 18.4667C 18.01268 19.060341 20.806499 21.49798 21.595039 24.1875M 13.10344 25.30188C 15.42126 24.04438 18.434441 24.381741 20.40624 25M 48.826199 42.9678C 48.826199 52.499199 40.401001 56.0606 30.007799 56.0606C 19.61478 56.0606 11.189538 52.499199 11.189538 42.9678C 11.189538 35.5686 16.26668 26.74688 23.4002 23.17M 40.742599 25.995941C 39.472198 24.86968 38.087601 23.908161 36.615601 23.17M 36.640602 23.080879C 36.640602 23.080879 34.5966 24.22558 30.006599 24.22558C 25.416821 24.22558 23.37278 23.080879 23.37278 23.080879C 17.184021 16.876619 19.63052 8.668536 27.0916 13.293921C 28.86132 14.39104 31.152 14.39104 32.921799 13.293921C 40.382797 8.668534 42.829399 16.876619 36.640602 23.080879ZM 10 10M 52.863201 27.5996L 54.778999 34.8494L 47.5816 36.9534M 54.422401 34.648201C 46.814999 28.992359 39.672199 28.950121 35.5508 37.054398"></path></g></g></g><g id="g-root-tx_implemen_zqb8khfbokjx-stroke" data-item-order="0" transform="translate(327, 398)"></g><g id="g-root-ic_2_qtfa5dfblt6r-stroke" data-item-order="0" transform="translate(507, 410)"><g id="ic_2_qtfa5dfblt6r-stroke" fill="none" stroke-linecap="round" stroke-linejoin="round" stroke-miterlimit="4" stroke="#ffffff" stroke-width="2"><g><path d="M 11.5 51.537998C 11.5 54.299423 13.738576 56.538002 16.5 56.538002L 51.5 56.537998C 54.261425 56.538002 56.5 54.299423 56.5 51.538002C 56.5 48.776577 54.261425 46.538002 51.5 46.538002L 16.5 46.537998C 13.738576 46.538002 11.5 48.776577 11.5 51.538002ZM 49.679996 46.540001L 38.171997 46.540001L 38.171997 36.304001L 49.679996 36.304001ZM 48 51.537998C 48 52.090286 48.447716 52.537998 49 52.537998C 49.552284 52.537998 50 52.090286 50 51.537998C 50 50.985714 49.552284 50.537998 49 50.537998C 48.447716 50.537998 48 50.985714 48 51.537998M 38 51.537998C 38 52.090286 38.447716 52.537998 39 52.537998C 39.552284 52.537998 40 52.090286 40 51.537998C 40 50.985714 39.552284 50.537998 39 50.537998C 38.447716 50.537998 38 50.985714 38 51.537998M 27.916 51.537998C 27.916 52.090286 28.363716 52.537998 28.916 52.537998C 29.468285 52.537998 29.916 52.090286 29.916 51.537998C 29.916 50.985714 29.468285 50.537998 28.916 50.537998C 28.363716 50.537998 27.916 50.985714 27.916 51.537998M 17.916 51.537998C 17.916 52.090286 18.363716 52.537998 18.916 52.537998C 19.468285 52.537998 19.916 52.090286 19.916 51.537998C 19.916 50.985714 19.468285 50.537998 18.916 50.537998C 18.363716 50.537998 17.916 50.985714 17.916 51.537998M 43.925999 40.388L 43.925999 36.302002M 28.916 46.540001L 17.408001 46.540001L 17.408001 36.304001L 28.916 36.304001ZM 23.161999 40.388L 23.161999 36.302002M 13.456 21.439999L 23.436001 11.462L 23.436001 17.948L 51.952 17.948L 51.952 25.262001L 23.436001 25.262001L 23.436001 31.42L 13.456 21.439999Z"></path></g></g></g><g id="g-root-tx_optimize_1cuwizlfbpypu-stroke" data-item-order="0" transform="translate(332, 98)"></g><g id="g-root-tx_streamli_8z0w81fbg4cv-stroke" data-item-order="0" transform="translate(104, 38)"></g><g id="g-root-ic_yoyo_1qcls81fbn764-stroke" data-item-order="0" transform="translate(238, 542)"><g id="ic_yoyo_1qcls81fbn764-stroke" fill="none" stroke-linecap="round" stroke-linejoin="round" stroke-miterlimit="4" stroke="#ffffff" stroke-width="2"><g><path d="M 22.369999 52.827999C 20.797449 50.326149 20.674789 47.176575 22.048 44.559998M 16.656 56.400002C 13.493524 51.552162 13.493524 45.293839 16.656 40.445999M 29.403999 47C 29.404001 52.521744 33.880257 56.998001 39.402 56.998001C 44.923744 56.998001 49.400002 52.521744 49.400002 47C 49.400002 41.478256 44.923744 37.001999 39.402 37.001999C 33.880257 37.001999 29.404001 41.478256 29.404001 47M 39.400002 44C 41.056854 44 42.400002 45.343147 42.400002 47C 42.400002 48.656857 41.056854 50 39.400002 50C 37.743149 50 36.400002 48.656857 36.400002 47C 36.400002 45.343147 37.743149 44 39.400002 44ZM 29.233999 20.133999L 20.743999 23.852001C 18.868452 24.673225 16.682327 23.817942 15.862 21.942001L 15.862 21.942001C 15.041725 20.066975 15.895695 17.881922 17.77 17.060001L 29.48 11.934C 31.792633 10.920637 34.381462 10.725241 36.82 11.38L 44.514 12.944L 53.714001 12.944M 37.512001 20.557999L 31.08 19.732C 29.330788 19.633434 27.784254 20.858635 27.48 22.584L 27.48 22.584C 27.469334 22.637333 27.461334 22.691334 27.455999 22.746C 27.339394 23.657452 27.590132 24.577854 28.152918 25.304224C 28.715704 26.030594 29.544312 26.503265 30.456001 26.618L 35.468002 27.504C 37.633202 27.889011 39.863949 27.623131 41.877998 26.74L 48.678001 23L 53.726002 23M 28.872 26.212C 30.034025 30.538134 31.800066 34.678871 34.118 38.512001"></path></g></g></g><g id="g-root-ic_1_1ltnwo1fbg45c-stroke" data-item-order="0" transform="translate(543, 542)"><g id="ic_1_1ltnwo1fbg45c-stroke" fill="none" stroke-linecap="round" stroke-linejoin="round" stroke-miterlimit="4" stroke="#ffffff" stroke-width="2"><g><path d="M 20 37.400002C 15.581722 37.400002 12 40.98172 12 45.400002L 12 56.400002L 28 56.400002L 28 45.400002C 28 40.98172 24.418278 37.400002 20 37.400002ZM 16 38.391998L 16 25.864M 24 25.864L 24 38.391998M 14 21.392C 14 24.705708 16.686291 27.392 20 27.392C 23.313709 27.392 26 24.705708 26 21.392C 26 18.078293 23.313709 15.392 20 15.392C 16.686291 15.392 14 18.078293 14 21.392M 39.542 17.116001C 39.542 20.157986 42.008015 22.624001 45.049999 22.624001C 48.091984 22.624001 50.557999 20.157986 50.557999 17.116001C 50.557999 14.074016 48.091984 11.608 45.049999 11.608C 42.008015 11.608 39.542 14.074016 39.542 17.116001M 39.784 14.493999L 24.104 17.015999M 25.892 22.529999L 39.478001 20.344M 43.188 22.624001L 43.666 28.440001M 48.327999 28.056L 47.849998 22.25M 12 46.391998L 28 46.391998M 41.299999 28.586L 46.049999 28.243999L 50.548 27.92M 46.543999 34.248001L 46.049999 28.243999M 12 56.391998L 56 56.391998M 36.889999 56.400002L 36.889999 52.169998C 36.903168 51.224136 37.680122 50.467766 38.625999 50.48L 54.262001 50.48C 55.208652 50.466652 55.986839 51.223347 56 52.170002L 56 56.400002M 40.363998 50.48L 46.444 38.48L 52.526001 50.48L 40.363998 50.48ZM 19 21.248001C 19 21.800285 19.447716 22.248001 20 22.248001C 20.552284 22.248001 21 21.800285 21 21.248001C 21 20.695715 20.552284 20.248001 20 20.248001C 19.447716 20.248001 19 20.695715 19 21.248001M 52.880001 31.01L 55.212002 29.474001M 53.195999 35.746002L 55.138 37.23M 39.538002 32.152L 36.908001 31.212M 40.354 36.826L 38.82 38.728001"></path></g></g></g><g id="g-root-tx_reliable_deuechfbpyiv-stroke" data-item-order="0" transform="translate(500, 686)"></g><g id="g-root-tx_automate_v5hxr5fbpzbi-stroke" data-item-order="0" transform="translate(512, 626)"></g><g id="g-root-tx_errorpro_1d30p41fbol53-stroke" data-item-order="0" transform="translate(189, 686)"></g><g id="g-root-tx_manualin_4o76shfbolc6-stroke" data-item-order="0" transform="translate(201, 626)"></g></g></g></svg>