<?xml version="1.0" encoding="utf-8" standalone="yes"?>
<!DOCTYPE svg PUBLIC "-//W3C//DTD SVG 1.1//EN" "http://www.w3.org/Graphics/SVG/1.1/DTD/svg11.dtd">
<svg width="919" height="701" viewBox="0 0 919 701" style="fill:none;stroke:none;fill-rule:evenodd;clip-rule:evenodd;stroke-linecap:round;stroke-linejoin:round;stroke-miterlimit:1.5;" version="1.1" xmlns="http://www.w3.org/2000/svg" xmlns:xlink="http://www.w3.org/1999/xlink"><style class="text-font-style fontImports" data-font-family="Roboto">@import url('https://fonts.googleapis.com/css2?family=Roboto:wght@400;700&amp;display=block');</style><rect id="" x="0" y="0" width="918.475" height="700.317" style="fill: #ffffff;"></rect><g id="items" style="isolation: isolate"><g id="blend" style="mix-blend-mode: normal"><g id="g-root-tf_1qdupesrt23np-fill" data-item-order="-964835"><g id="tf_1qdupesrt23np-fill" stroke="none" fill="#ffffff"><g><path d="M0 0h918.48 v700.32 h -918.48 Z"></path></g></g></g><g id="g-root-id-0_g-0_fr_zkoxt0rstnnw-fill" data-item-order="-518392" transform="translate(237.93603515625, 150.2857666015625)"><g id="id-0_g-0_fr_zkoxt0rstnnw-fill" stroke="none" fill="url(#gradient-f1f1f1-138043701)"><g><path d="M 98.6437 120.452C 101.9765 116.695 105.5275 113.027 109.2311 109.5451C 94.9593 97.2259 78.1946 88.1095 60.0784 82.829C 59.583 83.3746 59.0906 83.9224 58.6013 84.4723C 56.369 86.99 54.0878 89.6724 51.9983 92.2476C 32.1169 116.789 17.9483 145.068 10 174.971C 24.4477 187.23 40.8208 196.582 59.0326 201.986C 59.9352 196.985 61.0597 192.059 62.3958 187.218L 62.4312 187.249C 69.1712 162.831 81.4035 139.891 98.6437 120.452ZM 62.5911 277.546C 63.3237 280.152 64.117 282.733 64.9634 285.273L 64.9687 285.267C 68.9439 297.148 74.3178 308.768 81.1434 319.906C 87.9694 331.045 95.8838 341.11 104.6657 350.046C 104.6637 350.046 104.6618 350.047 104.6598 350.048C 105.6928 351.096 106.7412 352.133 107.805 353.157C 110.388 355.65 113.041 358.049 115.758 360.354C 101.9603 373.432 85.6594 382.938 67.8025 389.319C 55.6116 377.151 44.6525 363.36 35.2558 348.026C 25.7779 332.56 18.4205 316.39 13.1021 299.855C 26.7315 286.809 43.0061 276.851 60.8075 270.651C 61.3516 272.956 61.946 275.255 62.5911 277.546ZM 177.546 449.001C 207.822 455.563 239.488 455.832 270.423 449.3C 273.807 448.584 277.403 447.73 280.809 446.843C 281.479 446.667 282.148 446.488 282.817 446.306C 286.337 427.767 285.825 408.691 281.328 390.382C 276.545 392.101 271.664 393.6 266.803 394.863C 241.657 401.399 215.665 401.884 190.849 396.804C 190.853 396.82 190.857 396.836 190.862 396.851C 185.941 395.844 180.989 394.603 176.122 393.136C 172.593 411.635 173.075 430.69 177.546 449.001ZM 167.806 73.6727C 197.335 63.0592 228.624 61.1965 258.24 67.2596L 258.227 67.2123C 263.147 68.2195 268.047 69.4542 272.913 70.9204C 276.365 52.2404 275.466 33.4066 271.102 14.9687C 241.261 8.563 210.08 8.2673 179.588 14.569C 175.275 15.4602 170.977 16.4841 166.697 17.6407C 163.293 36.3019 163.376 55.1783 167.806 73.6727ZM 333.286 103.6763C 333.991 104.2731 334.69 104.8763 335.386 105.4858C 338.517 108.2275 341.544 111.088 344.429 114.016L 344.42 114.019C 353.201 122.955 361.115 133.018 367.94 144.157C 374.767 155.296 380.141 166.917 384.116 178.799L 384.122 178.793C 384.746 180.665 385.338 182.552 385.897 184.454C 386.771 187.41 387.56 190.381 388.264 193.361C 406.181 187.005 422.052 176.797 435.845 163.783C 430.537 147.397 423.225 131.371 413.828 116.037C 404.35 100.5702 393.282 86.6735 380.965 74.4283C 363.153 80.6497 346.892 90.6296 333.286 103.6763ZM 339.883 354.477C 362.745 332.986 378.609 305.953 386.652 276.814L 386.69 276.848C 388.026 272.006 389.168 267.03 390.071 262.028C 408.155 267.282 424.914 276.362 439.199 288.658C 431.38 318.314 417.447 346.385 397.894 370.812C 395.142 374.25 392.278 377.615 389.305 380.903C 371.132 375.464 354.351 366.82 339.883 354.477Z"></path></g></g></g><g id="g-root-id-1_g-1_fr_1cxeeckrsto92-fill" data-item-order="-518388" transform="translate(485.98870849609375, 134.72857666015625)"><g id="id-1_g-1_fr_1cxeeckrsto92-fill" stroke="none" fill="url(#gradient-ddf7ff-50901866)"><g><path d="M 85.231 119.235C 80.883 123.357 76.8166 127.873 72.9953 132.717C 79.9443 133.559 88.0154 132.333 96.3747 129.574C 92.8498 125.995 89.1117 122.518 85.231 119.235ZM 142.342 99.9282C 147.016 94.9631 150.956 89.7266 153.829 84.4369C 146.767 85.9737 139.759 87.5947 132.923 89.9818C 136.064 93.1098 139.414 96.6387 142.342 99.9282ZM 20.2664 104.0879C 29.7434 106.9858 39.016 110.854 48.0629 115.767C 57.091 120.668 72.9953 132.717 72.9953 132.717C 76.8166 127.873 80.883 123.357 85.231 119.235C 98.8396 106.1849 115.106 96.2031 132.923 89.9818C 139.759 87.5947 146.767 85.9737 153.829 84.4369C 136.288 65.2571 115.131 49.7712 91.0068 36.6727C 67.2858 23.7933 41.9339 14.3338 16.7329 10C 19.2854 16.7471 21.401 23.5781 23.0336 30.4644C 27.4095 48.9221 28.3149 67.7771 24.8588 86.4781C 23.7701 92.3691 22.2486 98.2447 20.2664 104.0879ZM 16.7329 10C 13.8608 15.2897 11.6186 21.4482 10 28.0723C 14.3533 28.7366 18.6997 29.5334 23.0336 30.4644C 21.401 23.5781 19.2854 16.7471 16.7329 10ZM 10.173 82.7699C 12.4113 91.2837 15.7757 98.7186 20.2664 104.0879C 22.2486 98.2447 23.7701 92.3691 24.8588 86.4781C 19.9928 85.0118 15.0928 83.7772 10.173 82.7699Z"></path></g></g></g><g id="g-root-id-2_g-2_fr_zmkd2crstmo8-fill" data-item-order="-518374" transform="translate(598.64306640625, 288.37469482421875)"><g id="id-2_g-2_fr_zmkd2crstmo8-fill" stroke="none" fill="url(#gradient-d6ffec-500851744)"><g><path d="M 29.3643 123.939C 23.6209 122.234 17.677 120.97 11.5706 120.083C 14.316 126.522 19.4132 132.899 25.9829 138.759C 27.3192 133.917 28.4616 128.941 29.3643 123.939ZM 74.6403 163.745C 81.2772 165.31 87.7823 166.104 93.7994 165.947C 88.9376 160.6 84.0298 155.341 78.5444 150.614C 77.4063 154.899 76.0249 159.564 74.6403 163.745ZM 10 60.1041C 12.2288 69.7603 13.5148 79.725 13.7843 90.0159C 14.0532 100.2854 11.5706 120.083 11.5706 120.083C 17.677 120.97 23.6209 122.234 29.3643 123.939C 47.4705 129.199 64.2482 138.295 78.5444 150.614C 84.0298 155.341 88.9376 160.6 93.7994 165.947C 101.6393 141.166 104.472 115.101 103.7534 87.6595C 103.0469 60.6768 98.563 33.9916 89.7157 10C 85.1489 15.5841 80.2909 20.8318 75.1434 25.6888C 61.3466 38.7073 45.4703 48.9189 27.5467 55.2763C 21.9006 57.2789 16.0514 58.8991 10 60.1041ZM 89.7157 10C 83.6987 10.1576 77.2442 11.295 70.6983 13.2053C 72.2996 17.3075 73.7828 21.4701 75.1434 25.6888C 80.2909 20.8318 85.1489 15.5841 89.7157 10ZM 23.4152 40.704C 17.1612 46.8992 12.4046 53.5303 10 60.1041C 16.0514 58.8991 21.9006 57.2789 27.5467 55.2763C 26.3836 50.3291 25.0028 45.4682 23.4152 40.704Z"></path></g></g></g><g id="g-root-id-3_g-3_fr_hvackkrstp1e-fill" data-item-order="-518360" transform="translate(494.73907470703125, 481.4248046875)"><g id="id-3_g-3_fr_hvackkrstp1e-fill" stroke="none" fill="url(#gradient-efffcc-362569939)"><g><path d="M 24.5251 59.2432C 23.1298 53.4169 21.2523 47.6375 18.9672 41.9057C 14.7636 47.5027 11.7896 55.1055 10 63.7248C 14.8613 62.4612 19.7417 60.9625 24.5251 59.2432ZM 12.6899 118.357C 14.6529 124.887 17.2177 130.917 20.3627 136.05C 22.5625 129.166 24.6628 122.286 26.0136 115.172C 21.7339 116.329 17.003 117.465 12.6899 118.357ZM 70.1255 10.5559C 62.8773 17.3142 54.8907 23.4102 46.1132 28.7891C 37.354 34.1567 18.9672 41.9057 18.9672 41.9057C 21.2523 47.6375 23.1298 53.4169 24.5251 59.2432C 29.0228 77.5538 29.5342 96.6317 26.0136 115.172C 24.6628 122.286 22.5625 129.166 20.3627 136.05C 45.743 130.449 69.7327 119.87 93.1385 105.5264C 116.153 91.4232 137.021 74.1975 153.375 54.5397C 146.255 53.3767 139.282 51.7934 132.502 49.7641C 114.329 44.3249 97.5473 35.6814 83.0799 23.3379C 78.5225 19.4496 74.1947 15.194 70.1255 10.5559ZM 153.375 54.5397C 150.23 49.4075 146.017 44.3865 141.09 39.6727C 138.338 43.1106 135.475 46.4763 132.502 49.7641C 139.282 51.7934 146.255 53.3767 153.375 54.5397ZM 93.6341 12.4737C 85.1418 10.1552 77.0208 9.3514 70.1255 10.5559C 74.1947 15.194 78.5225 19.4496 83.0799 23.3379C 86.7826 19.857 90.3019 16.2307 93.6341 12.4737Z"></path></g></g></g><g id="g-root-id-4_g-4_fr_4kgbacrstngk-fill" data-item-order="-518346" transform="translate(275.13909912109375, 486.9267578125)"><g id="id-4_g-4_fr_4kgbacrstngk-fill" stroke="none" fill="url(#gradient-fffac9-95658444)"><g><path d="M 138.919 56.4956C 140.008 50.6043 141.58 44.7345 143.562001 38.891C 148.053001 44.2604 151.421001 51.6971 153.659001 60.2109C 148.738001 59.2034 143.786001 57.9623 138.919 56.4956ZM 153.832001 114.909C 152.213 121.533 149.968 127.689 147.096001 132.979C 144.539001 126.22 142.081001 119.459 140.360001 112.426C 144.694 113.357 149.478001 114.244 153.832001 114.909ZM 90.833301 10.2616C 98.425201 16.6313 106.719901 22.301 115.767001 27.2131C 124.795001 32.1149 143.562001 38.891 143.562001 38.891C 141.58 44.7345 140.008 50.6043 138.919 56.4956C 135.386 75.0165 135.874001 94.0951 140.360001 112.426C 142.081001 119.459 144.539001 126.22 147.096001 132.979C 121.457 128.714 96.946501 119.405 72.8221 106.3064C 49.101201 93.4269 27.3601 77.317 10 58.542C 17.048801 57.008 23.930001 55.0619 30.594501 52.6806C 48.4577 46.2978 64.764001 36.7879 78.565601 23.704C 82.913201 19.5825 87.0123 15.1064 90.833301 10.2616ZM 10 58.542C 12.8721 53.2523 16.8158 48.0177 21.4897 43.0525C 24.417801 46.3417 27.453301 49.5529 30.594501 52.6806C 23.930001 55.0619 17.048801 57.008 10 58.542ZM 67.457201 13.4071C 75.816501 10.6474 83.884301 9.4197 90.833301 10.2616C 87.0123 15.1064 82.913201 19.5825 78.565601 23.704C 74.685701 20.4217 70.9815 16.9846 67.457201 13.4071Z"></path></g></g></g><g id="g-root-id-5_g-5_fr_1qa3uw4rstoue-fill" data-item-order="-518332" transform="translate(212.46331787109375, 300.2928466796875)"><g id="id-5_g-5_fr_1qa3uw4rstoue-fill" stroke="none" fill="url(#gradient-ffebd9-422850840)"><g><path d="M 86.2842 120.644C 91.9305 118.641 97.8001 117.068 103.8517 115.862C 101.4471 122.436 96.6906 129.071 90.4366 135.266C 88.8487 130.501 87.4475 125.592 86.2842 120.644ZM 43.1535 162.765C 36.6076 164.675 30.153 165.809 24.136 165.966C 28.7112 160.372 33.337 154.864 38.5676 149.856C 39.9284 154.076 41.552 158.662 43.1535 162.765ZM 102.2811 55.8831C 100.5607 65.6427 99.798 75.661 100.0675 85.9519C 100.3364 96.2214 103.8517 115.862 103.8517 115.862C 97.8001 117.068 91.9305 118.641 86.2842 120.644C 68.4781 126.844 52.1994 136.806 38.5676 149.856C 33.337 154.864 28.7112 160.372 24.136 165.966C 15.0099 141.63 10.8169 115.749 10.0983 88.3073C 9.3917 61.3247 12.4728 34.4414 20.0524 10.0196C 24.9052 15.357 30.0312 20.3433 35.4258 24.9243C 49.8851 37.2028 66.274 46.5695 84.5057 51.9802C 90.2489 53.6846 96.1749 54.9964 102.2811 55.8831ZM 20.0524 10.0196C 26.0694 9.862 32.5746 10.6601 39.2115 12.2252C 37.8271 16.4056 36.5638 20.6401 35.4258 24.9243C 30.0312 20.3433 24.9052 15.357 20.0524 10.0196ZM 87.869 37.2116C 94.4386 43.0711 99.5357 49.4441 102.2811 55.8831C 96.1749 54.9964 90.2489 53.6846 84.5057 51.9802C 85.4084 46.9789 86.5329 42.0524 87.869 37.2116Z"></path></g></g></g><g id="g-root-id-6_g-6_fr_1cz9tlwrstn9k-fill" data-item-order="-518318" transform="translate(266.84222412109375, 137.1607666015625)"><defs><linearGradient id="gradient-f1f1f1-138043701" x2="0" y2="1"><stop offset="0" stop-color="#f6f6f6"></stop><stop offset="1" stop-color="#ebebeb"></stop></linearGradient><linearGradient id="gradient-ddf7ff-50901866" x2="0" y2="1"><stop offset="0" stop-color="#e9faff"></stop><stop offset="1" stop-color="#d1f4ff"></stop></linearGradient><linearGradient id="gradient-d6ffec-500851744" x2="0" y2="1"><stop offset="0" stop-color="#e4fff2"></stop><stop offset="1" stop-color="#c8ffe5"></stop></linearGradient><linearGradient id="gradient-efffcc-362569939" x2="0" y2="1"><stop offset="0" stop-color="#f4ffde"></stop><stop offset="1" stop-color="#e9ffb9"></stop></linearGradient><linearGradient id="gradient-fffac9-95658444" x2="0" y2="1"><stop offset="0" stop-color="#fffbdc"></stop><stop offset="1" stop-color="#fff8b6"></stop></linearGradient><linearGradient id="gradient-ffebd9-422850840" x2="0" y2="1"><stop offset="0" stop-color="#fff2e7"></stop><stop offset="1" stop-color="#ffe4cb"></stop></linearGradient><linearGradient id="gradient-ffe3e2-188317387" x2="0" y2="1"><stop offset="0" stop-color="#ffedec"></stop><stop offset="1" stop-color="#ffd9d8"></stop></linearGradient></defs><g id="id-6_g-6_fr_1cz9tlwrstn9k-fill" stroke="none" fill="url(#gradient-ffe3e2-188317387)"><g><path d="M 80.324701 122.671C 84.8825 126.559 89.1796 130.856 93.249301 135.494C 86.353901 136.698 78.229601 135.896 69.737301 133.578C 73.070201 129.82 76.621101 126.152 80.324701 122.671ZM 22.2813 106.3789C 17.353901 101.6651 13.145001 96.6421 10 91.5099C 17.132301 92.6751 24.2156 93.927 31.167401 95.9531C 28.193801 99.2412 25.033501 102.9406 22.2813 106.3789ZM 144.408001 104.1439C 135.095001 107.5338 126.038001 111.882 117.26 117.261C 108.501101 122.629 93.249301 135.494 93.249301 135.494C 89.1796 130.856 84.8825 126.559 80.324701 122.671C 66.051801 110.35 49.285301 101.2334 31.167401 95.9531C 24.2156 93.927 17.132301 92.6751 10 91.5099C 26.5126 71.4385 46.830101 54.8665 70.235901 40.5234C 93.2503 26.4202 118.072001 15.6468 143.012001 10C 140.816 16.8714 139.061 23.8038 137.791001 30.7661C 134.387001 49.4275 134.470001 68.3041 138.9 86.7985C 140.295 92.6245 142.122001 98.4125 144.408001 104.1439ZM 143.012001 10C 146.157 15.1322 148.719001 21.1648 150.682001 27.6951C 146.369001 28.5864 142.070001 29.6096 137.791001 30.7661C 139.061 23.8038 140.816 16.8714 143.012001 10ZM 153.371 82.3269C 151.582001 90.9461 148.611001 98.5469 144.408001 104.1439C 142.122001 98.4125 140.295 92.6245 138.9 86.7985C 143.682001 85.0796 148.511 83.5902 153.371 82.3269Z"></path></g></g></g><g id="g-root-tx_ensuresu_1uqju3ort22h0-fill" data-item-order="0" transform="translate(56.47503662109375, 162.31671142578125)"><g id="tx_ensuresu_1uqju3ort22h0-fill" stroke="none" fill="#484848"><g><text style="font: 15px Roboto, sans-serif; white-space: pre;" font-size="15px" font-family="Roboto, sans-serif"><tspan x="15.03" y="28" dominant-baseline="ideographic">Ensures up-to-date </tspan><tspan x="62.5" y="46" dominant-baseline="ideographic">information</tspan></text></g></g></g><g id="g-root-tx_allowsjo_1lqji90rsxwjm-fill" data-item-order="0" transform="translate(716.4749755859375, 582.316650390625)"><g id="tx_allowsjo_1lqji90rsxwjm-fill" stroke="none" fill="#484848"><g><text style="font: 15px Roboto, sans-serif; white-space: pre;" font-size="15px" font-family="Roboto, sans-serif"><tspan x="12" y="31" dominant-baseline="ideographic">Allows joint </tspan><tspan x="12" y="49" dominant-baseline="ideographic">presentation </tspan><tspan x="12" y="67" dominant-baseline="ideographic">creation</tspan></text></g></g></g><g id="g-root-docs_1hi7p5wrstnnp-fill" data-item-order="0" transform="translate(518.4750366210938, 174.31671142578125)"></g><g id="g-root-tx_enabless_93e6ucrstnus-fill" data-item-order="0" transform="translate(716.4750366210938, 138.31671142578125)"><g id="tx_enabless_93e6ucrstnus-fill" stroke="none" fill="#484848"><g><text style="font: 15px Roboto, sans-serif; white-space: pre;" font-size="15px" font-family="Roboto, sans-serif"><tspan x="12" y="31" dominant-baseline="ideographic">Enables </tspan><tspan x="12" y="49" dominant-baseline="ideographic">simultaneous </tspan><tspan x="12" y="67" dominant-baseline="ideographic">document editing</tspan></text></g></g></g><g id="g-root-tx_googledo_zpoqhwrstnur-fill" data-item-order="0" transform="translate(716.4750366210938, 102.31671142578125)"><g id="tx_googledo_zpoqhwrstnur-fill" stroke="none" fill="#1eabda"><g><text style="font: bold 20px Roboto, sans-serif; white-space: pre;" font-weight="bold" font-size="20px" font-family="Roboto, sans-serif"><tspan x="12" y="34" dominant-baseline="ideographic">Google Docs</tspan></text></g></g></g><g id="g-root-tx_feedback_18k2skkrt0oaw-fill" data-item-order="0" transform="translate(92.47503662109375, 312.316650390625)"><g id="tx_feedback_18k2skkrt0oaw-fill" stroke="none" fill="#de8431"><g><text style="font: bold 20px Roboto, sans-serif; white-space: pre;" font-weight="bold" font-size="20px" font-family="Roboto, sans-serif"><tspan x="17.3" y="34" dominant-baseline="ideographic">Feedback </tspan><tspan x="19.45" y="58" dominant-baseline="ideographic">Provision</tspan></text></g></g></g><g id="g-root-tx_googlesh_qvaof8rsv47a-fill" data-item-order="0" transform="translate(716.4750366210938, 324.316650390625)"><g id="tx_googlesh_qvaof8rsv47a-fill" stroke="none" fill="#3cc583"><g><text style="font: bold 20px Roboto, sans-serif; white-space: pre;" font-weight="bold" font-size="20px" font-family="Roboto, sans-serif"><tspan x="12" y="34" dominant-baseline="ideographic">Google Sheets</tspan></text></g></g></g><g id="g-root-prev_quo7c4rszbin-fill" data-item-order="0" transform="translate(230.47503662109375, 351.316650390625)"></g><g id="g-root-uplo_dcch0krswg74-fill" data-item-order="0" transform="translate(623.4750366210938, 342.316650390625)"></g><g id="g-root-tx_supports_hxs8x0rt0oax-fill" data-item-order="0" transform="translate(92.47503662109375, 372.316650390625)"><g id="tx_supports_hxs8x0rt0oax-fill" stroke="none" fill="#484848"><g><text style="font: 15px Roboto, sans-serif; white-space: pre;" font-size="15px" font-family="Roboto, sans-serif"><tspan x="43.32" y="31" dominant-baseline="ideographic">Supports </tspan><tspan x="21.77" y="49" dominant-baseline="ideographic">constructive </tspan><tspan x="42.55" y="67" dominant-baseline="ideographic">feedback</tspan></text></g></g></g><g id="g-root-tx_facilita_1lza5gkrsv2fb-fill" data-item-order="0" transform="translate(716.4750366210938, 360.316650390625)"><g id="tx_facilita_1lza5gkrsv2fb-fill" stroke="none" fill="#484848"><g><text style="font: 15px Roboto, sans-serif; white-space: pre;" font-size="15px" font-family="Roboto, sans-serif"><tspan x="12" y="31" dominant-baseline="ideographic">Facilitates </tspan><tspan x="12" y="49" dominant-baseline="ideographic">collaborative </tspan><tspan x="12" y="67" dominant-baseline="ideographic">spreadsheet work</tspan></text></g></g></g><g id="g-root-tx_document_mbqbs4rt22o3-fill" data-item-order="0" transform="translate(92.47503662109375, 102.31671142578125)"><g id="tx_document_mbqbs4rt22o3-fill" stroke="none" fill="#e55753"><g><text style="font: bold 20px Roboto, sans-serif; white-space: pre;" font-weight="bold" font-size="20px" font-family="Roboto, sans-serif"><tspan x="11.98" y="34" dominant-baseline="ideographic">Document </tspan><tspan x="29.76" y="58" dominant-baseline="ideographic">Updates</tspan></text></g></g></g><g id="g-root-tx_googlewo_mcz9ycrstn9m-fill" data-item-order="0" transform="translate(206.47503662109375, 42.31671142578125)"><g id="tx_googlewo_mcz9ycrstn9m-fill" stroke="none" fill="#484848"><g><text style="font: bold 25px Roboto, sans-serif; white-space: pre;" font-weight="bold" font-size="25px" font-family="Roboto, sans-serif"><tspan x="15.58" y="43" dominant-baseline="ideographic">Google Workspace's Collaborative Benefits</tspan></text></g></g></g><g id="g-root-idea_904rorsxuz0-fill" data-item-order="0" transform="translate(341.47503662109375, 516.316650390625)"></g><g id="g-root-shar_v48ylgrsxwjn-fill" data-item-order="0" transform="translate(530.4749755859375, 516.316650390625)"></g><g id="g-root-tx_ideashar_v98racrsz9c5-fill" data-item-order="0" transform="translate(68.47503662109375, 546.316650390625)"><g id="tx_ideashar_v98racrsz9c5-fill" stroke="none" fill="#e0cb15"><g><text style="font: bold 20px Roboto, sans-serif; white-space: pre;" font-weight="bold" font-size="20px" font-family="Roboto, sans-serif"><tspan x="14.94" y="34" dominant-baseline="ideographic">Idea Sharing</tspan></text></g></g></g><g id="g-root-tx_googlesl_v300f8rsxudl-fill" data-item-order="0" transform="translate(716.4749755859375, 546.316650390625)"><g id="tx_googlesl_v300f8rsxudl-fill" stroke="none" fill="#92bd39"><g><text style="font: bold 20px Roboto, sans-serif; white-space: pre;" font-weight="bold" font-size="20px" font-family="Roboto, sans-serif"><tspan x="12" y="34" dominant-baseline="ideographic">Google Slides</tspan></text></g></g></g><g id="g-root-tx_encourag_1usf9d0rsz9xq-fill" data-item-order="0" transform="translate(56.47503662109375, 582.316650390625)"><g id="tx_encourag_1usf9d0rsz9xq-fill" stroke="none" fill="#484848"><g><text style="font: 15px Roboto, sans-serif; white-space: pre;" font-size="15px" font-family="Roboto, sans-serif"><tspan x="61.44" y="28" dominant-baseline="ideographic">Encourages </tspan><tspan x="18.64" y="46" dominant-baseline="ideographic">exchange of ideas</tspan></text></g></g></g><g id="g-root-refr_74picrt0nia-fill" data-item-order="0" transform="translate(332.47503662109375, 180.31671142578125)"></g><g id="g-root-tf_1qdupesrt23np-stroke" data-item-order="-964835"></g><g id="g-root-id-0_g-0_fr_zkoxt0rstnnw-stroke" data-item-order="-518392" transform="translate(237.93603515625, 150.2857666015625)"><g id="id-0_g-0_fr_zkoxt0rstnnw-stroke" fill="none" stroke-linecap="round" stroke-linejoin="round" stroke-miterlimit="4" stroke="#969696" stroke-width="4"><g><path d="M 98.6 120.5C 101.8 116.6 106.1 113.6 109.2 109.5C 96 96.1 78.2 88.2 60.1 82.8C 59.6 83.4 59.2 84 58.6 84.5C 56 86.6 53.5 89.3 52 92.2C 44.7 106.4 33.5 117.9 26.4 131.9C 19.4 145.6 13 159.9 10 175C 24.5 187.1 41 196.1 59 202C 60.7 197.2 60.3 191.8 62.4 187.2C 72.7 164.1 81.1 139.6 98.6 120.5M 62.6 277.5C 63 280.2 64 282.8 65 285.3C 69.5 296.9 73.8 309.1 81.1 319.9C 88.5 330.7 95.7 341.3 104.7 350C 105.7 351.1 106.6 352.3 107.8 353.2C 110.7 355.2 112.7 358.5 115.8 360.4C 103 374.5 85.4 382.2 67.8 389.3C 55.3 377.5 43.1 364.2 35.3 348C 27.3 331.7 19.6 316 13.1 299.9C 26 286.1 42.9 276.7 60.8 270.7C 61.3 273 62 275.3 62.6 277.5M 177.5 449C 193.6 450.7 209.5 455.5 225.6 454.1C 240.5 452.7 255.4 451.6 270.4 449.3C 273.8 448.8 277.4 447.8 280.8 446.8C 281.5 446.7 282.1 446.4 282.8 446.3C 287.7 428.1 284.7 408.9 281.3 390.4C 276.3 390.5 271.7 393.6 266.8 394.9C 241.7 401.5 215.6 402.2 190.8 396.8C 185.9 396.3 181 394.6 176.1 393.1C 171.4 411.4 171.2 431.2 177.5 449M 167.8 73.7C 182.4 69.3 197 65.5 211.8 64.3C 227.4 63.1 243.4 62.6 258.2 67.3C 263.1 68.4 268.4 68.5 272.9 70.9C 274.9 52 274 33.7 271.1 15C 256.9 11.3 242.1 9.8 227.4 10C 211.4 10.3 195.4 11.4 179.6 14.6C 175.3 15.4 170.9 16.2 166.7 17.6C 163.9 36.4 162.8 55.3 167.8 73.7M 333.3 103.7C 333.8 104.4 334.8 104.8 335.4 105.5C 338.1 108.6 341.2 111.5 344.4 114C 354.3 121.8 360.8 133.2 367.9 144.2C 375.1 155.1 379.5 167.1 384.1 178.8C 384.8 180.6 385.5 182.5 385.9 184.5C 386.5 187.5 387.5 190.4 388.3 193.4C 406.1 186.7 422.3 177 435.8 163.8C 430.5 147.4 422.6 131.8 413.8 116C 405 100.2 393.8 86.2 381 74.4C 363 80.2 347.5 91.3 333.3 103.7M 339.9 354.5C 362.6 332.9 376.9 305.4 386.7 276.8C 387.6 271.9 389.6 267.1 390.1 262C 407.9 268 424.2 277.2 439.2 288.7C 429.8 317.8 416.8 345.9 397.9 370.8C 395.2 374.3 392.8 378.2 389.3 380.9C 380.5 379.5 371.6 376.4 364.6 371C 356.8 365 347.9 360.5 339.9 354.5"></path><path d="M 98.6437 120.4525C 101.9765 116.6947 105.5275 113.0266 109.2311 109.5451C 94.9593 97.2259 78.1946 88.1095 60.0784 82.829C 59.583 83.3746 59.0906 83.9224 58.6013 84.4723C 56.369 86.99 54.0878 89.6724 51.9983 92.2476C 32.1169 116.7887 17.9483 145.068 10 174.9708C 24.4477 187.2296 40.8208 196.5817 59.0326 201.9864C 59.9352 196.9852 61.0597 192.0587 62.3958 187.2178L 62.4312 187.2495C 69.1712 162.8308 81.4035 139.8912 98.6437 120.4525ZM 62.5911 277.5457C 63.3237 280.1517 64.117 282.7326 64.9634 285.2726L 64.9687 285.2674C 68.9439 297.1481 74.3178 308.768 81.1434 319.9063C 87.9694 331.0454 95.8838 341.1096 104.6657 350.0458C 104.6637 350.0464 104.6618 350.0471 104.6598 350.0477C 105.6928 351.0963 106.7412 352.1328 107.805 353.1569C 110.3883 355.65 113.0412 358.0495 115.7585 360.3538C 101.9603 373.4316 85.6594 382.938 67.8025 389.3192C 55.6116 377.151 44.6525 363.3602 35.2558 348.0262C 25.7779 332.5597 18.4205 316.3896 13.1021 299.8553C 26.7315 286.8094 43.0061 276.8507 60.8075 270.6512C 61.3516 272.9561 61.946 275.2548 62.5911 277.5457ZM 177.5464 449.0005C 207.8218 455.5626 239.4882 455.8324 270.4233 449.3004C 273.8066 448.5838 277.4032 447.7299 280.8095 446.843C 281.4792 446.6673 282.1485 446.4884 282.8173 446.3062C 286.3369 427.7672 285.8253 408.6908 281.328 390.3817C 276.5445 392.1011 271.6641 393.5997 266.8029 394.8633C 241.657 401.3992 215.6653 401.8843 190.8492 396.8045C 190.8533 396.8201 190.8575 396.8358 190.8616 396.8515C 185.9408 395.844 180.9886 394.6028 176.1218 393.1362C 172.5928 411.6349 173.0752 430.69 177.5464 449.0005ZM 167.8061 73.6727C 197.3346 63.0592 228.6243 61.1965 258.2396 67.2596L 258.2271 67.2123C 263.1469 68.2195 268.0469 69.4542 272.9129 70.9204C 276.3651 52.2404 275.4657 33.4066 271.1024 14.9687C 241.2612 8.563 210.0798 8.2673 179.5877 14.569C 175.2751 15.4602 170.9766 16.4841 166.6973 17.6407C 163.2934 36.3019 163.3761 55.1783 167.8061 73.6727ZM 333.2865 103.6763C 333.9906 104.2731 334.6905 104.8763 335.3859 105.4858C 338.5172 108.2275 341.5444 111.0879 344.4289 114.016L 344.4198 114.019C 353.201 122.9548 361.1149 133.0184 367.9405 144.1568C 374.7666 155.2961 380.1409 166.917 384.1162 178.7988L 384.1221 178.793C 384.7459 180.6651 385.3379 182.5522 385.8972 184.4535C 386.771 187.4102 387.5598 190.3806 388.2644 193.3615C 406.1811 187.0047 422.0519 176.7965 435.8447 163.7832C 430.5372 147.3967 423.2248 131.371 413.828 116.0369C 404.35 100.5702 393.2825 86.6735 380.9647 74.4283C 363.1532 80.6497 346.8917 90.6296 333.2865 103.6763ZM 339.8832 354.4769C 362.7447 332.986 378.6094 305.9533 386.6524 276.8144L 386.6898 276.8478C 388.0261 272.006 389.1685 267.0301 390.0712 262.0278C 408.1553 267.2816 424.914 276.3619 439.1988 288.658C 431.3799 318.3143 417.4467 346.3855 397.8937 370.812C 395.1417 374.2499 392.2778 377.6149 389.3045 380.9027C 371.132 375.4636 354.3506 366.8202 339.8832 354.4769Z"></path></g></g></g><g id="g-root-id-1_g-1_fr_1cxeeckrsto92-stroke" data-item-order="-518388" transform="translate(485.98870849609375, 134.72857666015625)"><g id="id-1_g-1_fr_1cxeeckrsto92-stroke" fill="none" stroke-linecap="round" stroke-linejoin="round" stroke-miterlimit="4" stroke="#1eabda" stroke-width="4"><g><path d="M 85.186328 119.188135C 81.286328 123.788135 76.186328 127.488135 72.986328 132.688135C 79.986328 133.288135 87.686328 131.088135 96.386328 129.588135C 94.186328 125.088135 88.886328 122.688135 85.186328 119.188135M 142.386328 99.888135C 147.686328 95.688135 151.186328 89.788135 153.786328 84.388135C 147.086328 87.188135 139.686328 87.388135 132.886328 89.988135C 136.386328 92.788135 138.786328 97.388135 142.386328 99.888135M 20.286328 104.088135C 29.086328 108.488135 38.786328 111.288135 48.086328 115.788135C 57.286328 120.288135 72.986328 132.688135 72.986328 132.688135C 75.386328 126.988135 79.786328 121.888135 85.186328 119.188135C 99.786328 107.188135 114.686328 94.688135 132.886328 89.988135C 139.886328 88.188135 147.186328 87.388135 153.786328 84.388135C 134.886328 66.688135 115.286328 49.388135 90.986328 36.688135C 67.086328 24.088135 42.086328 13.488135 16.686328 9.988135C 20.086328 16.388135 22.386328 23.388135 22.986328 30.488135C 24.786328 49.388135 28.486328 67.788135 24.886328 86.488135C 23.686328 92.388135 22.986328 98.488135 20.286328 104.088135M 16.686328 9.988135C 13.886328 15.288135 13.286328 22.088135 9.986328 28.088135C 14.286328 29.188135 18.686328 29.588135 22.986328 30.488135C 21.286328 23.588135 17.786328 17.188135 16.686328 9.988135M 10.186328 82.788135C 13.086328 91.088135 15.086328 99.388135 20.286328 104.088135C 21.286328 97.988135 23.986328 92.388135 24.886328 86.488135C 19.986328 84.888135 14.986328 84.088135 10.186328 82.788135"></path><path d="M 85.231 119.2353C 80.883 123.3568 76.8166 127.8725 72.9953 132.7173C 79.9443 133.5593 88.0154 132.3334 96.3747 129.5736C 92.8498 125.9954 89.1117 122.5182 85.231 119.2353ZM 142.3423 99.9282C 147.0162 94.9631 150.9565 89.7266 153.8285 84.4369C 146.767 85.9737 139.7589 87.5947 132.9227 89.9818C 136.0643 93.1098 139.4138 96.6387 142.3423 99.9282ZM 20.2664 104.0879C 29.7434 106.9858 39.016 110.8544 48.0629 115.7665C 57.091 120.6684 72.9953 132.7173 72.9953 132.7173C 76.8166 127.8725 80.883 123.3568 85.231 119.2353C 98.8396 106.1849 115.1059 96.2031 132.9227 89.9818C 139.7589 87.5947 146.767 85.9737 153.8285 84.4369C 136.2881 65.2572 115.1312 49.7712 91.0068 36.6727C 67.2858 23.7933 41.9339 14.3338 16.7328 10C 19.2853 16.7471 21.401 23.5781 23.0336 30.4644C 27.4095 48.9221 28.3149 67.7771 24.8588 86.4781C 23.7701 92.3691 22.2486 98.2447 20.2664 104.0879ZM 16.7328 10C 13.8608 15.2897 11.6186 21.4482 10 28.0723C 14.3533 28.7366 18.6997 29.5334 23.0336 30.4644C 21.401 23.5781 19.2853 16.7471 16.7328 10ZM 10.173 82.7699C 12.4113 91.2837 15.7757 98.7186 20.2664 104.0879C 22.2486 98.2447 23.7701 92.3691 24.8588 86.4781C 19.9928 85.0118 15.0928 83.7772 10.173 82.7699Z"></path></g></g></g><g id="g-root-id-2_g-2_fr_zmkd2crstmo8-stroke" data-item-order="-518374" transform="translate(598.64306640625, 288.37469482421875)"><g id="id-2_g-2_fr_zmkd2crstmo8-stroke" fill="none" stroke-linecap="round" stroke-linejoin="round" stroke-miterlimit="4" stroke="#3cc583" stroke-width="4"><g><path d="M 29.4 123.9C 23.6 122.2 17.6 121.4 11.6 120.1C 13.8 126.7 19.1 133.3 26 138.8C 27.6 134 29.3 129 29.4 123.9M 74.6 163.7C 81.1 165.9 87.9 167.1 93.8 165.9C 89.1 160.5 83.4 156 78.5 150.6C 77.5 154.9 76.1 159.6 74.6 163.7M 10 60.1C 11 70 12.5 79.8 13.8 90C 15.1 100.2 11.6 120.1 11.6 120.1C 17.7 120.9 23.7 121.9 29.4 123.9C 47 130.6 63.1 139.8 78.5 150.6C 84.5 154.8 88.2 161.4 93.8 165.9C 97.1 153.9 99.9 141.8 101.8 129.3C 103.8 115.8 103 101.9 103.8 87.7C 105.2 60.7 99.2 33.7 89.7 10C 84.1 14.5 79.3 20 75.1 25.7C 64 41 45.9 50.5 27.5 55.3C 21.8 56.8 15.9 58.5 10 60.1M 89.7 10C 83.8 10.8 77.2 11 70.7 13.2C 72.8 17.1 73.6 21.5 75.1 25.7C 79.7 20.3 86 16.2 89.7 10M 23.4 40.7C 18.2 47.8 12 53.4 10 60.1C 16 58.7 21.6 56 27.5 55.3C 26.5 50.3 23.9 45.7 23.4 40.7"></path><path d="M 29.3643 123.9388C 23.6209 122.2341 17.677 120.9703 11.5706 120.0833C 14.316 126.5223 19.4132 132.8992 25.9829 138.7587C 27.3192 133.9169 28.4616 128.9411 29.3643 123.9388ZM 74.6403 163.7451C 81.2772 165.3102 87.7823 166.1043 93.7994 165.9468C 88.9376 160.5997 84.0298 155.341 78.5444 150.6142C 77.4063 154.899 76.025 159.5642 74.6403 163.7451ZM 10 60.1041C 12.2288 69.7603 13.5148 79.725 13.7843 90.0159C 14.0532 100.2854 11.5706 120.0833 11.5706 120.0833C 17.677 120.9703 23.6209 122.2341 29.3643 123.9388C 47.4705 129.199 64.2482 138.2951 78.5444 150.6142C 84.0298 155.341 88.9376 160.5997 93.7994 165.9468C 101.6393 141.1665 104.472 115.1011 103.7534 87.6595C 103.0469 60.6768 98.563 33.9916 89.7157 10C 85.1489 15.5841 80.2909 20.8318 75.1434 25.6888C 61.3466 38.7073 45.4703 48.9189 27.5467 55.2763C 21.9006 57.2789 16.0514 58.8991 10 60.1041ZM 89.7157 10C 83.6987 10.1576 77.2442 11.295 70.6983 13.2053C 72.2996 17.3075 73.7828 21.4701 75.1434 25.6888C 80.2909 20.8318 85.1489 15.5841 89.7157 10ZM 23.4152 40.704C 17.1612 46.8992 12.4046 53.5303 10 60.1041C 16.0514 58.8991 21.9006 57.2789 27.5467 55.2763C 26.3836 50.3291 25.0028 45.4682 23.4152 40.704Z"></path></g></g></g><g id="g-root-id-3_g-3_fr_hvackkrstp1e-stroke" data-item-order="-518360" transform="translate(494.73907470703125, 481.4248046875)"><g id="id-3_g-3_fr_hvackkrstp1e-stroke" fill="none" stroke-linecap="round" stroke-linejoin="round" stroke-miterlimit="4" stroke="#92bd39" stroke-width="4"><g><path d="M 24.5 59.2C 22.5 53.6 20.5 47.9 19 41.9C 15.6 48.1 12.8 55.4 10 63.7C 14.5 61.5 19.8 61.1 24.5 59.2M 12.7 118.4C 13.1 125.2 16.4 131.5 20.4 136C 22.1 129 22.9 121.7 26 115.2C 21.7 116.2 17.1 118.4 12.7 118.4M 70.1 10.6C 63.3 17.7 53.9 22.1 46.1 28.8C 38.3 35.5 19 41.9 19 41.9C 20.9 47.8 24.9 53.3 24.5 59.2C 29.3 77.5 27.9 96.4 26 115.2C 25.3 122.4 23.2 129.4 20.4 136C 32.8 131.6 46.7 130.7 58.2 123.8C 69.3 117.1 81.7 112.6 93.1 105.5C 116.2 91.4 137.5 74.6 153.4 54.5C 146.2 53.8 139.5 50.7 132.5 49.8C 113.7 47.3 97.8 35.4 83.1 23.3C 78.4 19.5 74.8 14.6 70.1 10.6M 153.4 54.5C 150.5 49.3 145.1 45.2 141.1 39.7C 139.3 43.7 134.9 46 132.5 49.8C 139 52.6 146.3 53 153.4 54.5M 93.6 12.5C 85.2 10.1 77 9.1 70.1 10.6C 74.8 14.5 78.5 19.5 83.1 23.3C 87.4 20.7 90 15.9 93.6 12.5"></path><path d="M 24.5251 59.2432C 23.1298 53.4169 21.2523 47.6375 18.9672 41.9057C 14.7636 47.5027 11.7896 55.1055 10 63.7248C 14.8613 62.4612 19.7417 60.9625 24.5251 59.2432ZM 12.6899 118.3565C 14.6529 124.8868 17.2177 130.9174 20.3627 136.0496C 22.5625 129.1657 24.6628 122.2861 26.0136 115.1721C 21.7339 116.3288 17.003 117.4652 12.6899 118.3565ZM 70.1255 10.5559C 62.8773 17.3142 54.8907 23.4102 46.1132 28.7891C 37.354 34.1567 18.9672 41.9057 18.9672 41.9057C 21.2523 47.6375 23.1298 53.4169 24.5251 59.2432C 29.0228 77.5538 29.5342 96.6317 26.0136 115.1721C 24.6628 122.2861 22.5625 129.1657 20.3627 136.0496C 45.743 130.449 69.7327 119.8695 93.1385 105.5264C 116.1529 91.4232 137.0211 74.1975 153.3748 54.5397C 146.2554 53.3767 139.2817 51.7934 132.5017 49.7641C 114.3289 44.3249 97.5473 35.6814 83.0799 23.3379C 78.5225 19.4495 74.1947 15.194 70.1255 10.5559ZM 153.3748 54.5397C 150.2298 49.4075 146.0175 44.3865 141.0901 39.6727C 138.3382 43.1106 135.4749 46.4763 132.5017 49.7641C 139.2817 51.7934 146.2554 53.3767 153.3748 54.5397ZM 93.6341 12.4737C 85.1418 10.1552 77.0208 9.3514 70.1255 10.5559C 74.1947 15.194 78.5225 19.4495 83.0799 23.3379C 86.7826 19.857 90.3019 16.2307 93.6341 12.4737Z"></path></g></g></g><g id="g-root-id-4_g-4_fr_4kgbacrstngk-stroke" data-item-order="-518346" transform="translate(275.13909912109375, 486.9267578125)"><g id="id-4_g-4_fr_4kgbacrstngk-stroke" fill="none" stroke-linecap="round" stroke-linejoin="round" stroke-miterlimit="4" stroke="#e0cb15" stroke-width="4"><g><path d="M 138.935938 56.5C 140.935938 50.9 140.535938 44.3 143.535938 38.9C 148.835938 43.5 150.735937 51.9 153.635938 60.2C 148.735937 59.1 143.435938 58.8 138.935938 56.5M 153.835938 114.9C 152.635938 121.6 150.735937 128.2 147.135938 133C 145.235937 126 141.435938 119.6 140.335938 112.4C 144.735937 112.8 149.435938 114.8 153.835938 114.9M 90.835938 10.3C 97.435938 17.6 106.435938 22.8 115.735937 27.2C 125.035937 31.6 143.535938 38.9 143.535938 38.9C 140.435938 44.2 140.135938 50.6 138.935938 56.5C 135.535938 75.1 134.835938 94.4 140.335938 112.4C 142.535938 119.3 143.735937 126.6 147.135938 133C 121.235937 130 96.935938 119.3 72.835938 106.3C 49.035937 93.5 27.535937 77.2 10.035937 58.5C 16.935937 56.4 24.235938 55.8 30.635938 52.7C 47.635938 44.3 65.035937 37 78.535937 23.7C 82.835938 19.5 87.135938 15.2 90.835938 10.3M 10.035937 58.5C 11.235938 52.7 16.335938 47.5 21.535937 43.1C 24.235938 46.5 27.935937 49.2 30.635938 52.7C 24.135938 55.5 17.235938 58.2 10.035937 58.5M 67.435938 13.4C 75.935938 11.2 83.835938 9.6 90.835938 10.3C 87.035937 15.1 82.935938 19.6 78.535937 23.7C 74.135938 21.3 71.435938 16.4 67.435938 13.4"></path><path d="M 138.919201 56.4956C 140.007701 50.6043 141.580201 44.7345 143.562101 38.891C 148.052901 44.2604 151.420701 51.6971 153.659001 60.2109C 148.738201 59.2034 143.7861 57.9623 138.919201 56.4956ZM 153.832001 114.9085C 152.2134 121.5326 149.9677 127.6892 147.0957 132.9789C 144.5386 126.2196 142.0812 119.4593 140.3599 112.4258C 144.694301 113.3569 149.4781 114.2442 153.832001 114.9085ZM 90.833301 10.2616C 98.425201 16.6313 106.719901 22.301 115.766901 27.2131C 124.795001 32.1149 143.562101 38.891 143.562101 38.891C 141.580201 44.7345 140.007701 50.6043 138.919201 56.4956C 135.386 75.0165 135.873801 94.0951 140.3599 112.4258C 142.0812 119.4593 144.5386 126.2196 147.0957 132.9789C 121.457 128.7143 96.946501 119.4048 72.8221 106.3064C 49.101201 93.4269 27.3601 77.317 10 58.542C 17.048801 57.008 23.930001 55.0619 30.594501 52.6806C 48.4577 46.2978 64.764001 36.7879 78.565601 23.704C 82.913201 19.5825 87.0123 15.1064 90.833301 10.2616ZM 10 58.542C 12.8721 53.2523 16.8158 48.0177 21.4897 43.0525C 24.417801 46.3417 27.453301 49.5529 30.594501 52.6806C 23.930001 55.0619 17.048801 57.008 10 58.542ZM 67.457201 13.4071C 75.816501 10.6474 83.884301 9.4197 90.833301 10.2616C 87.0123 15.1064 82.913201 19.5825 78.565601 23.704C 74.685701 20.4217 70.9815 16.9846 67.457201 13.4071Z"></path></g></g></g><g id="g-root-id-5_g-5_fr_1qa3uw4rstoue-stroke" data-item-order="-518332" transform="translate(212.46331787109375, 300.2928466796875)"><g id="id-5_g-5_fr_1qa3uw4rstoue-stroke" fill="none" stroke-linecap="round" stroke-linejoin="round" stroke-miterlimit="4" stroke="#de8431" stroke-width="4"><g><path d="M 86.311719 120.6C 91.811719 118.3 98.011719 117.8 103.811719 115.9C 102.511719 122.7 96.411719 128.8 90.411719 135.3C 89.511719 130.3 85.811719 125.7 86.311719 120.6M 43.111719 162.8C 36.811719 165.2 30.011719 167.2 24.111719 166C 28.611719 160.3 32.411719 153.7 38.611719 149.9C 39.911719 154.1 42.311719 158.4 43.111719 162.8M 102.311719 55.9C 100.811719 65.7 99.411719 75.7 100.111719 86C 100.711719 96.2 103.811719 115.9 103.811719 115.9C 97.711719 116.2 91.811719 118.4 86.311719 120.6C 67.911719 125 52.811719 137.5 38.611719 149.9C 33.111719 154.6 27.811719 159.7 24.111719 166C 15.111719 141.6 10.211719 115.8 10.111719 88.3C 10.011719 76.1 12.011719 64 11.511719 52.1C 10.911719 37.5 15.211719 23.2 20.011719 10C 25.111719 15.1 29.911719 20.4 35.411719 24.9C 50.111719 37 66.811719 45.1 84.511719 52C 90.111719 54.1 96.311719 54.2 102.311719 55.9M 20.011719 10C 25.911719 11.5 32.411719 12.2 39.211719 12.2C 37.311719 16.2 35.911719 20.5 35.411719 24.9C 30.011719 20.4 24.711719 15.5 20.011719 10M 87.911719 37.2C 95.411719 41.8 99.111719 49.7 102.311719 55.9C 96.111719 55.5 90.411719 52.8 84.511719 52C 87.011719 47.6 86.811719 42.1 87.911719 37.2"></path><path d="M 86.2842 120.6437C 91.9305 118.6407 97.8001 117.0676 103.8517 115.8623C 101.4471 122.4361 96.6906 129.0711 90.4366 135.2663C 88.8487 130.5011 87.4475 125.5919 86.2842 120.6437ZM 43.1535 162.765C 36.6076 164.6753 30.153 165.8088 24.136 165.9664C 28.7112 160.3722 33.337 154.8639 38.5676 149.8564C 39.9284 154.0757 41.552 158.6623 43.1535 162.765ZM 102.2811 55.8831C 100.5607 65.6427 99.798 75.661 100.0675 85.9519C 100.3364 96.2214 103.8517 115.8623 103.8517 115.8623C 97.8001 117.0676 91.9305 118.6407 86.2842 120.6437C 68.4781 126.8443 52.1994 136.806 38.5676 149.8564C 33.337 154.8639 28.7112 160.3722 24.136 165.9664C 15.0099 141.6303 10.8169 115.7489 10.0983 88.3073C 9.3917 61.3247 12.4728 34.4414 20.0524 10.0196C 24.9052 15.357 30.0312 20.3433 35.4258 24.9243C 49.8851 37.2028 66.274 46.5695 84.5057 51.9802C 90.2489 53.6846 96.1749 54.9964 102.2811 55.8831ZM 20.0524 10.0196C 26.0694 9.862 32.5746 10.6601 39.2115 12.2252C 37.8271 16.4056 36.5638 20.6401 35.4258 24.9243C 30.0312 20.3433 24.9052 15.357 20.0524 10.0196ZM 87.869 37.2116C 94.4386 43.0711 99.5357 49.4441 102.2811 55.8831C 96.1749 54.9964 90.2489 53.6846 84.5057 51.9802C 85.4084 46.9789 86.5329 42.0524 87.869 37.2116Z"></path></g></g></g><g id="g-root-id-6_g-6_fr_1cz9tlwrstn9k-stroke" data-item-order="-518318" transform="translate(266.84222412109375, 137.1607666015625)"><g id="id-6_g-6_fr_1cz9tlwrstn9k-stroke" fill="none" stroke-linecap="round" stroke-linejoin="round" stroke-miterlimit="4" stroke="#e55753" stroke-width="4"><g><path d="M 80.332812 122.7C 85.532812 125.7 90.432813 130 93.232813 135.5C 86.432813 136.9 78.332812 135.6 69.732813 133.6C 72.632813 129.5 76.832812 126.4 80.332812 122.7M 22.232812 106.4C 16.432813 102.8 13.632813 96.3 10.032813 91.5C 17.132813 92.7 24.532813 92.9 31.132813 96C 29.232812 99.9 24.932813 102.8 22.232812 106.4M 144.432813 104.1C 135.232813 107.8 126.732813 113.3 117.232813 117.3C 107.732813 121.2 93.232813 135.5 93.232813 135.5C 88.632813 131.4 84.432813 127 80.332812 122.7C 65.932813 110.5 49.332812 101.2 31.132813 96C 24.232812 94 17.232812 92.2 10.032813 91.5C 27.632813 72.4 46.732813 54.7 70.232813 40.5C 93.332812 26.6 118.132813 15.7 143.032812 10C 141.132813 16.9 139.532812 23.9 137.832813 30.8C 133.132813 49.2 135.232813 68.1 138.932813 86.8C 140.032812 92.7 142.632813 98.2 144.432813 104.1M 143.032812 10C 146.632813 14.8 148.632813 21.2 150.632813 27.7C 146.432813 29 142.232813 30.6 137.832813 30.8C 139.432813 23.9 140.232813 16.7 143.032812 10M 153.332813 82.3C 149.732813 90.4 148.232813 98.3 144.432813 104.1C 140.732813 99.2 140.032812 92.7 138.932813 86.8C 143.432813 84.4 148.732813 84.4 153.332813 82.3"></path><path d="M 80.324701 122.6705C 84.8825 126.5589 89.1796 130.8555 93.249301 135.4937C 86.353901 136.6981 78.229601 135.8964 69.737301 133.5779C 73.070201 129.8201 76.621101 126.152 80.324701 122.6705ZM 22.2813 106.3789C 17.353901 101.6651 13.145001 96.6421 10 91.5099C 17.132301 92.6751 24.2156 93.927 31.167401 95.9531C 28.193801 99.2412 25.033501 102.9406 22.2813 106.3789ZM 144.407501 104.1439C 135.095301 107.5338 126.037801 111.8824 117.260301 117.2613C 108.501101 122.6289 93.249301 135.4937 93.249301 135.4937C 89.1796 130.8555 84.8825 126.5589 80.324701 122.6705C 66.051801 110.3503 49.285301 101.2334 31.167401 95.9531C 24.2156 93.927 17.132301 92.6751 10 91.5099C 26.5126 71.4385 46.830101 54.8665 70.235901 40.5234C 93.250201 26.4202 118.072401 15.6468 143.0121 10C 140.8162 16.8714 139.060901 23.8038 137.791001 30.7661C 134.387001 49.4275 134.469801 68.3041 138.899901 86.7985C 140.295401 92.6245 142.122301 98.4125 144.407501 104.1439ZM 143.0121 10C 146.157101 15.1322 148.718501 21.1648 150.681501 27.6951C 146.369001 28.5864 142.070201 29.6096 137.791001 30.7661C 139.060901 23.8038 140.8162 16.8714 143.0121 10ZM 153.371401 82.3269C 151.581801 90.9461 148.6111 98.5469 144.407501 104.1439C 142.122301 98.4125 140.295401 92.6245 138.899901 86.7985C 143.682401 85.0796 148.511101 83.5902 153.371401 82.3269Z"></path></g></g></g><g id="g-root-tx_ensuresu_1uqju3ort22h0-stroke" data-item-order="0" transform="translate(56.47503662109375, 162.31671142578125)"></g><g id="g-root-tx_allowsjo_1lqji90rsxwjm-stroke" data-item-order="0" transform="translate(716.4749755859375, 582.316650390625)"></g><g id="g-root-docs_1hi7p5wrstnnp-stroke" data-item-order="0" transform="translate(518.4750366210938, 174.31671142578125)"><g id="docs_1hi7p5wrstnnp-stroke" fill="none" stroke-linecap="round" stroke-linejoin="round" stroke-miterlimit="4" stroke="#1eabda" stroke-width="2"><g><path d="M 53 53C 53 55.209141 51.209141 57 49 57L 19 57C 16.790861 57 15 55.209141 15 53L 15 15C 15 12.790861 16.790861 11 19 11L 40 11L 53 24ZM 53 24L 44 24C 41.790863 24 40 22.209139 40 20L 40 11ZM 45 31L 23 31M 45 37.34L 23 37.34M 45 43.66L 23 43.66M 34 50L 23 50"></path></g></g></g><g id="g-root-tx_enabless_93e6ucrstnus-stroke" data-item-order="0" transform="translate(716.4750366210938, 138.31671142578125)"></g><g id="g-root-tx_googledo_zpoqhwrstnur-stroke" data-item-order="0" transform="translate(716.4750366210938, 102.31671142578125)"></g><g id="g-root-tx_feedback_18k2skkrt0oaw-stroke" data-item-order="0" transform="translate(92.47503662109375, 312.316650390625)"></g><g id="g-root-tx_googlesh_qvaof8rsv47a-stroke" data-item-order="0" transform="translate(716.4750366210938, 324.316650390625)"></g><g id="g-root-prev_quo7c4rszbin-stroke" data-item-order="0" transform="translate(230.47503662109375, 351.316650390625)"><g id="prev_quo7c4rszbin-stroke" fill="none" stroke-linecap="round" stroke-linejoin="round" stroke-miterlimit="4" stroke="#de8431" stroke-width="2"><g><path d="M 12 28L 18 37L 25 29M 18 37C 17.332821 31.620815 18.920742 26.205284 22.387074 22.038111C 25.853403 17.870937 30.889259 15.323458 36.300003 15C 46.792042 14.615492 55.60976 22.808167 55.996307 33.300133C 56.382854 43.792103 48.191891 52.611412 37.699997 52.999996M 46 35.760002C 45.033413 34.187599 44.553291 32.364525 44.619999 30.519999L 44.619999 28.379999C 44.761986 25.655346 43.389149 23.074646 41.050358 21.669674C 38.711563 20.264698 35.788437 20.264698 33.449646 21.669674C 31.110851 23.074646 29.738016 25.655346 29.880001 28.380001L 29.879999 30.52C 29.94216 32.361343 29.469805 34.181301 28.52 35.760002M 29.860001 29.6C 32.694061 29.598253 35.387405 28.364714 37.239998 26.219999C 39.08802 28.359442 41.772926 29.592457 44.599998 29.6M 43.720001 29.559999C 43.528717 33.004517 40.679825 35.699589 37.230003 35.699589C 33.780174 35.699589 30.931286 33.004517 30.740002 29.560001M 47 45C 45.137066 41.321075 41.363708 39.002266 37.239998 39.002266C 33.116287 39.002266 29.342932 41.321075 27.48 45"></path></g></g></g><g id="g-root-uplo_dcch0krswg74-stroke" data-item-order="0" transform="translate(623.4750366210938, 342.316650390625)"><g id="uplo_dcch0krswg74-stroke" fill="none" stroke-linecap="round" stroke-linejoin="round" stroke-miterlimit="4" stroke="#3cc583" stroke-width="2"><g><path d="M 37 47C 37 52.522846 41.477154 57 47 57C 52.522846 57 57 52.522846 57 47C 57 41.477154 52.522846 37 47 37C 41.477154 37 37 41.477154 37 47ZM 10 10M 47 43L 47 51M 10 10M 43 47L 47 43L 51 47M 11 41C 11 34.372581 16.372583 29 23 29C 29.627417 29 35 34.372581 35 41ZM 15.5 18.5C 15.5 22.642136 18.857864 26 23 26C 27.142136 26 30.5 22.642136 30.5 18.5C 30.5 14.357864 27.142136 11 23 11C 18.857864 11 15.5 14.357864 15.5 18.5ZM 34.5 18.5C 34.5 22.642136 37.857864 26 42 26C 46.142136 26 49.5 22.642136 49.5 18.5C 49.5 14.357864 46.142136 11 42 11C 37.857864 11 34.5 14.357864 34.5 18.5ZM 48.939999 31.209999C 45.111145 28.493202 40.049599 28.258762 35.986 30.610001"></path></g></g></g><g id="g-root-tx_supports_hxs8x0rt0oax-stroke" data-item-order="0" transform="translate(92.47503662109375, 372.316650390625)"></g><g id="g-root-tx_facilita_1lza5gkrsv2fb-stroke" data-item-order="0" transform="translate(716.4750366210938, 360.316650390625)"></g><g id="g-root-tx_document_mbqbs4rt22o3-stroke" data-item-order="0" transform="translate(92.47503662109375, 102.31671142578125)"></g><g id="g-root-tx_googlewo_mcz9ycrstn9m-stroke" data-item-order="0" transform="translate(206.47503662109375, 42.31671142578125)"></g><g id="g-root-idea_904rorsxuz0-stroke" data-item-order="0" transform="translate(341.47503662109375, 516.316650390625)"><g id="idea_904rorsxuz0-stroke" fill="none" stroke-linecap="round" stroke-linejoin="round" stroke-miterlimit="4" stroke="#e0cb15" stroke-width="2"><g><path d="M 37 32.968002L 31 32.968002M 40 21.968C 39.906944 18.693611 37.274391 16.061058 34 15.968C 30.725613 16.061058 28.093058 18.693611 28 21.968C 28.045399 24.047924 29.186134 25.949152 31 26.967999L 31 28.968L 37 28.968L 37 26.968C 38.813286 25.948555 39.953796 24.047695 40 21.968ZM 14.5 46.467999C 14.5 48.400997 16.067003 49.968002 18 49.968002C 19.932997 49.968002 21.5 48.400997 21.5 46.468002C 21.5 44.535004 19.932997 42.968002 18 42.968002C 16.067003 42.968002 14.5 44.535004 14.5 46.468002ZM 25 56.967999C 24.184053 53.768185 21.302212 51.528988 18 51.528988C 14.697788 51.528988 11.815947 53.768185 11 56.968002ZM 30.5 46.467999C 30.500002 48.400997 32.067005 49.968002 34 49.968002C 35.932999 49.968002 37.5 48.400997 37.5 46.468002C 37.5 44.535004 35.932999 42.968002 34 42.968002C 32.067005 42.968002 30.500002 44.535004 30.500002 46.468002ZM 41 56.967999C 40.184052 53.768185 37.302212 51.528988 34 51.528988C 30.697788 51.528988 27.815947 53.768185 27 56.968002ZM 46.5 46.467999C 46.5 48.400997 48.067005 49.968002 50 49.968002C 51.932999 49.968002 53.5 48.400997 53.5 46.468002C 53.5 44.535004 51.932999 42.968002 50 42.968002C 48.067005 42.968002 46.5 44.535004 46.5 46.468002ZM 57 56.967999C 56.184055 53.768185 53.302212 51.528988 50 51.528988C 46.697788 51.528988 43.815948 53.768185 43 56.968002ZM 34 10.968L 34 12.968M 41.778 14.190001L 40.363998 15.604M 45 20.968L 43 20.968M 26.222 14.190001L 27.636 15.604M 23 20.968L 25 20.968M 32 36.968002L 36 36.968002"></path></g></g></g><g id="g-root-shar_v48ylgrsxwjn-stroke" data-item-order="0" transform="translate(530.4749755859375, 516.316650390625)"><g id="shar_v48ylgrsxwjn-stroke" fill="none" stroke-linecap="round" stroke-linejoin="round" stroke-miterlimit="4" stroke="#92bd39" stroke-width="2"><g><path d="M 34.176003 45.891998C 37.271999 45.891998 33.271999 56.84 41.271999 56.84C 44.370052 56.837463 47.215214 55.129875 48.674664 52.397121C 50.134113 49.664368 49.970894 46.350132 48.25 43.773998C 46.82 41.218002 55.953999 38.716 55.953999 35C 50.853069 37.333668 45.32095 38.576195 39.711998 38.647999C 35.112 38.648003 34.176003 40.82 34.176003 40.82C 34.176003 40.82 33.232002 38.643997 28.638 38.648003C 22.898466 38.550377 17.238361 37.289627 12 34.942001C 12 38.658001 21.526001 41.218002 20.098 43.773998C 18.376705 46.350727 18.213842 49.665844 19.67428 52.398884C 21.134718 55.131924 23.981228 56.83894 27.08 56.839996C 35.080002 56.84 31.08 45.891998 34.176003 45.891998ZM 52.080002 36.521999L 52.080002 15C 52.080002 12.790861 50.289139 11 48.080002 11L 20.08 11C 17.870861 11 16.08 12.790861 16.08 15L 16.08 36.507999M 35.080002 29C 35.080002 32.313709 37.766293 35 41.080002 35C 44.393711 35 47.080002 32.313709 47.080002 29C 47.080002 25.686291 44.393711 23 41.080002 23C 37.766293 23 35.080002 25.686291 35.080002 29ZM 21.08 29C 21.080002 32.313709 23.766293 35 27.08 35C 30.393709 35 33.080002 32.313709 33.080002 29C 33.080002 25.686291 30.393709 23 27.08 23C 23.766293 23 21.080002 25.686291 21.080002 29Z"></path></g></g></g><g id="g-root-tx_ideashar_v98racrsz9c5-stroke" data-item-order="0" transform="translate(68.47503662109375, 546.316650390625)"></g><g id="g-root-tx_googlesl_v300f8rsxudl-stroke" data-item-order="0" transform="translate(716.4749755859375, 546.316650390625)"></g><g id="g-root-tx_encourag_1usf9d0rsz9xq-stroke" data-item-order="0" transform="translate(56.47503662109375, 582.316650390625)"></g><g id="g-root-refr_74picrt0nia-stroke" data-item-order="0" transform="translate(332.47503662109375, 180.31671142578125)"><g id="refr_74picrt0nia-stroke" fill="none" stroke-linecap="round" stroke-linejoin="round" stroke-miterlimit="4" stroke="#e55753" stroke-width="2"><g><path d="M 48 41L 57 41L 57 32M 56.316002 41C 54.493988 35.843327 49.41576 32.570965 43.967026 33.042435C 38.518288 33.513908 34.077637 37.609924 33.168472 43.002922C 32.259308 48.395924 35.11166 53.721413 40.104675 55.953178C 45.097694 58.184944 50.96809 56.758327 54.380001 52.484001M 51 29L 51 14.334C 51.000004 12.492682 49.50732 11 47.666 11L 20.334 11C 18.492683 11 17 12.492682 17 14.334L 17 37M 29 45L 21.246 45C 16.399778 44.999744 12.175537 41.701485 11 37L 31 37"></path></g></g></g></g></g></svg>